<?xml version="1.0" standalone="no"?>
<!DOCTYPE svg PUBLIC "-//W3C//DTD SVG 1.1//EN" "http://www.w3.org/Graphics/SVG/1.1/DTD/svg11.dtd" >
<!--
2013-9-30: Created.
-->
<svg>
<metadata>
Created by iconfont
</metadata>
<defs>

<font id="iconfont" horiz-adv-x="1024" >
  <font-face
    font-family="iconfont"
    font-weight="500"
    font-stretch="normal"
    units-per-em="1024"
    ascent="896"
    descent="-128"
  />
    <missing-glyph />
    
    <glyph glyph-name="jiahao" unicode="&#58953;" d="M904 328H120c-30.9 0-56 25.1-56 56s25.1 56 56 56h784c31 0 56-25.1 56-56s-25-56-56-56zM456.1-8V776c0 30.9 25.1 56 56 56s56-25.1 56-56v-784c0-30.9-25.1-56-56-56-31 0-56 25-56 56z"  horiz-adv-x="1024" />

    
    <glyph glyph-name="guanbi" unicode="&#58898;" d="M176.662 78.827c-8.19-8.471-7.96-21.977 0.51-30.165 8.472-8.19 21.978-7.96 30.166 0.51l618.667 640c8.189 8.472 7.96 21.978-0.511 30.166-8.471 8.19-21.977 7.96-30.166-0.51l-618.666-640zM795.328 49.173c8.19-8.471 21.695-8.7 30.166-0.511 8.471 8.188 8.7 21.694 0.511 30.165l-618.667 640c-8.188 8.471-21.694 8.7-30.165 0.511-8.471-8.188-8.7-21.694-0.511-30.165l618.666-640z"  horiz-adv-x="1024" />

    
    <glyph glyph-name="close1" unicode="&#58986;" d="M100.067361 895.153019L1023.382497-28.12682700000005l-99.802591-99.837882L0.264769 795.350427zM0.017733-27.315136000000052L923.33287 896l99.802591-99.802592L99.820325-127.11772800000006z"  horiz-adv-x="1024" />

    
    <glyph glyph-name="logo" unicode="&#59075;" d="M3737.6 476.16c-61.44 0-115.2-48.64-115.2-110.08s53.76-110.08 115.2-110.08h184.32v220.16H3737.6zM4334.08 476.16h-192V256h192c61.44 0 110.08 48.64 110.08 110.08s-48.64 110.08-110.08 110.08zM4139.52 663.04c0 61.44-48.64 110.08-110.08 110.08s-110.08-48.64-110.08-110.08v-184.32h220.16V663.04zM3921.92 66.55999999999995c0-61.44 48.64-110.08 110.08-110.08s110.08 48.64 110.08 110.08V256h-220.16v-189.44zM3921.92 476.16h220.16V256h-220.16zM944.64 711.6800000000001l-130.56-128c-81.92 87.04-179.2 130.56-289.28 130.56-94.72 0-176.64-30.72-240.64-94.72s-97.28-140.8-97.28-232.96c0-94.72 33.28-174.08 99.84-238.08 66.56-66.56 151.04-97.28 248.32-97.28 64 0 117.76 12.8 161.28 40.96 43.52 28.16 79.36 69.12 107.52 125.44h-281.6v174.08h491.52l2.56-40.96c0-84.48-23.04-166.4-66.56-243.2-43.52-76.8-102.4-135.68-171.52-174.08-69.12-40.96-153.6-61.44-248.32-61.44-102.4 0-192 23.04-271.36 66.56-79.36 43.52-143.36 107.52-189.44 186.88C23.04 207.36 0 294.4 0 389.12c0 128 43.52 240.64 128 337.92C227.84 839.68 360.96 896 522.24 896c84.48 0 163.84-15.36 238.08-46.08 64-28.16 122.88-71.68 184.32-138.24zM1832.96 407.04L1320.96 128c30.72-40.96 71.68-66.56 117.76-74.24 46.08-10.24 94.72 0 143.36 25.6 58.88 33.28 99.84 81.92 120.32 145.92l168.96 10.24c-7.68-66.56-28.16-122.88-64-168.96-33.28-48.64-84.48-89.6-148.48-125.44-99.84-53.76-197.12-66.56-294.4-38.4s-171.52 89.6-222.72 184.32c-53.76 97.28-64 194.56-38.4 291.84 28.16 97.28 87.04 171.52 181.76 222.72 99.84 53.76 197.12 66.56 294.4 35.84 97.28-30.72 174.08-97.28 230.4-202.24l23.04-28.16z m-227.84 38.4c-30.72 30.72-66.56 46.08-110.08 51.2-43.52 5.12-84.48-2.56-125.44-25.6-43.52-23.04-76.8-58.88-97.28-99.84-12.8-28.16-17.92-64-12.8-112.64l345.6 186.88zM2703.36 427.52L2201.6 117.75999999999999c35.84-40.96 76.8-64 122.88-69.12 48.64-7.68 94.72 5.12 145.92 35.84 58.88 35.84 97.28 87.04 112.64 153.6l168.96 20.48c-5.12-66.56-23.04-125.44-53.76-176.64-30.72-51.2-79.36-94.72-143.36-135.68-97.28-61.44-197.12-79.36-296.96-53.76-99.84 23.04-179.2 81.92-235.52 174.08-58.88 94.72-76.8 192-53.76 294.4 23.04 99.84 79.36 179.2 171.52 238.08 97.28 61.44 197.12 79.36 296.96 53.76 99.84-25.6 181.76-89.6 245.76-192l20.48-33.28z m-230.4 28.16c-30.72 28.16-69.12 43.52-112.64 46.08-43.52 2.56-87.04-7.68-125.44-33.28-43.52-25.6-74.24-64-92.16-107.52-10.24-28.16-12.8-66.56-7.68-115.2l337.92 209.92zM2844.16 883.2h181.76V307.20000000000005l266.24 296.96h227.84l-309.76-345.6L3558.4-117.75999999999999h-225.28l-307.2 332.8v-332.8h-181.76V883.2z"  horiz-adv-x="4480" />

    
    <glyph glyph-name="shanghuodian" unicode="&#59065;" d="M911.36 411.1872l-389.12 389.12-389.12-389.12a33.28 33.28 0 1 1 47.0528-47.0528L488.96 672.768v-680.96a33.28 33.28 0 1 1 66.56 0v680.96l308.6336-308.6336a33.28 33.28 0 0 1 47.2064 47.0528z"  horiz-adv-x="1024" />

    
    <glyph glyph-name="jiebangshangxiahuodian" unicode="&#59067;" d="M477.0304 287.6928a33.28 33.28 0 0 1-29.0816-36.8128 109.9264 109.9264 0 0 0-31.3344-91.392l-90.6752-90.8288a88.9344 88.9344 0 0 0-125.2864 0l-29.0304 29.0304a88.9344 88.9344 0 0 0 0 125.2864l92.4672 92.4672a107.52 107.52 0 0 0 87.04 30.72 33.28 33.28 0 1 1 6.4 66.2528 174.08 174.08 0 0 1-140.288-50.0736l-92.672-92.3136a155.4944 155.4944 0 0 1 0-219.4432l29.0304-28.9792a155.4944 155.4944 0 0 1 219.4432 0l90.6752 90.6752a176.0768 176.0768 0 0 1 50.3808 146.3808 33.2288 33.2288 0 0 1-37.0688 29.0304zM938.8032 476.16l-11.264 39.424a155.4944 155.4944 0 0 1-191.7952 106.496l-123.2896-35.1744a176.0768 176.0768 0 0 1-115.1488-103.424 33.28 33.28 0 0 1 61.44-25.1904 109.9264 109.9264 0 0 0 71.68 64.6144L754.0224 558.08a88.9344 88.9344 0 0 0 109.5168-60.8768l11.264-39.424A88.9344 88.9344 0 0 0 814.08 348.16l-125.7472-35.84a107.52 107.52 0 0 0-90.88 15.36 33.28 33.28 0 1 1-37.7856-54.784 173.7216 173.7216 0 0 1 146.944-24.3712l125.7472 35.84A155.4944 155.4944 0 0 1 938.8032 476.16zM338.7392 235.8272a33.28 33.28 0 0 1 47.0528 0l79.2064 79.2064a33.28 33.28 0 0 1-47.0528 47.0528l-79.2064-79.1552a33.28 33.28 0 0 1 0-47.104zM657.4592 416.8704a33.28 33.28 0 0 1-41.5232 22.1696L508.7232 406.528a33.28 33.28 0 1 1 19.3024-63.488l107.2128 32.512a33.28 33.28 0 0 1 22.2208 41.3184zM154.4192 528.0256l99.84-50.8416a33.28 33.28 0 1 1 30.208 59.2896l-99.84 50.8416a33.28 33.28 0 1 1-30.208-59.2896zM333.568 578.2528a33.28 33.28 0 1 1 56.9344 34.4576L332.4928 708.608a33.28 33.28 0 0 1-56.9344-34.4576zM478.4128 590.592h1.9456a33.28 33.28 0 0 1 33.1776 31.3344l6.4512 111.872a33.28 33.28 0 1 1-66.56 3.84l-6.2976-111.9232a33.28 33.28 0 0 1 31.2832-35.1232z"  horiz-adv-x="1024" />

    
    <glyph glyph-name="jinhangqu" unicode="&#59068;" d="M513.1264 792.8832a430.7456 430.7456 0 1 1 430.7456-430.7456 431.2064 431.2064 0 0 1-430.7456 430.7456z m-364.1856-430.7456A362.496 362.496 0 0 0 233.3184 594.944l512.6144-512.6144a363.9296 363.9296 0 0 0-596.992 279.808z m644.0448-232.704L280.4224 641.9968a363.9296 363.9296 0 0 0 512.5632-512.5632z"  horiz-adv-x="1024" />

    
    <glyph glyph-name="bangdingshangxiahuodian" unicode="&#59070;" d="M527.9744 279.8592a33.28 33.28 0 0 1-29.0816-37.0176 130.4576 130.4576 0 0 0-37.2224-108.4928L357.9392 30.72a106.24 106.24 0 0 0-150.0672 0l-33.1776 33.1776a106.24 106.24 0 0 0 0 150.0672l105.7792 105.7792a128 128 0 0 0 103.1168 36.7104 33.28 33.28 0 1 1 6.4 66.2528 194.0992 194.0992 0 0 1-156.6208-55.9104L127.6416 261.12a172.8512 172.8512 0 0 1 0-244.224l33.1776-33.1776a172.8512 172.8512 0 0 1 244.1728 0l103.7312 103.68a196.6592 196.6592 0 0 1 56.32 163.4304 33.2288 33.2288 0 0 1-37.0688 29.0304zM896.3584 719.2064l-33.1776 33.1776a172.8512 172.8512 0 0 1-244.224 0l-103.68-103.7312a196.608 196.608 0 0 1-56.32-163.4304 33.28 33.28 0 0 1 66.0992 7.8848 130.4576 130.4576 0 0 0 37.2224 108.4928l103.68 103.68a106.24 106.24 0 0 0 150.0672 0l33.1776-33.1776a106.5472 106.5472 0 0 0 0-150.0672l-105.6768-105.728a128 128 0 0 0-103.1168-36.7104 33.28 33.28 0 1 1-6.4-66.2528q9.6256-0.9216 19.1488-0.9216a193.8432 193.8432 0 0 1 137.472 56.832l105.7792 105.7792a173.056 173.056 0 0 1 0 244.224zM359.1168 215.04a33.28 33.28 0 0 1 47.0528 0l231.7824 231.8336a33.28 33.28 0 1 1-47.0528 47.0528l-231.7824-231.7312a33.28 33.28 0 0 1 0-47.1552z"  horiz-adv-x="1024" />

    
    <glyph glyph-name="reset-all" unicode="&#59073;" d="M633.856 76.3904a325.888 325.888 0 0 0-428.032 416.768l42.2912-42.2912V593.9200000000001H105.0112l50.0224-50.0224c-0.3584-0.6144-0.7168-1.28-1.024-1.9456a392.6016 392.6016 0 0 1 505.0368-527.36 33.28 33.28 0 1 1-25.1904 61.44zM775.8848 305.408v-143.104h143.104l-45.4144 45.4144a33.1776 33.1776 0 0 1 4.096 6.5536 392.6016 392.6016 0 0 1-505.0368 527.36 33.28 33.28 0 1 1 25.1904-61.44 326.0416 326.0416 0 0 0 425.984-422.3488z"  horiz-adv-x="1024" />

    
    <glyph glyph-name="circle-4" unicode="&#59076;" d="M512-45.004800000000046A434.1248 434.1248 0 1 0 946.1248 389.12 434.6368 434.6368 0 0 0 512-45.004800000000046z m0 817.0496A382.9248 382.9248 0 1 1 894.9248 389.12 383.3856 383.3856 0 0 1 512 772.0448zM541.7472 272.17920000000004H346.5216v48.64l194.0992 285.3888h64.1536v-282.0096h43.6736v-51.968h-43.6736v-75.2128h-63.0272z m3.8912 51.968V527.36l-132.1984-203.1616z"  horiz-adv-x="1024" />

    
    <glyph glyph-name="circle-1" unicode="&#59077;" d="M512-45.004800000000046A434.1248 434.1248 0 1 0 946.1248 389.12 434.6368 434.6368 0 0 0 512-45.004800000000046z m0 817.0496A382.9248 382.9248 0 1 1 894.9248 389.12 383.3856 383.3856 0 0 1 512 772.0448zM498.0736 528.1792H420.6592V583.6800000000001H563.2v-409.6H498.0736z"  horiz-adv-x="1024" />

    
    <glyph glyph-name="circle-6" unicode="&#59078;" d="M512-45.004800000000046A434.1248 434.1248 0 1 0 946.1248 389.12 434.6368 434.6368 0 0 0 512-45.004800000000046z m0 817.0496A382.9248 382.9248 0 1 1 894.9248 389.12 383.3856 383.3856 0 0 1 512 772.0448zM591.872 606.2080000000001l-79.0528-113.3568c-6.0928-8.2944-12.1856-17.152-18.7904-26.5216a92.4672 92.4672 0 0 0 42.0352 10.496c64.7168 0 131.072-50.8928 131.072-138.8032A146.2784 146.2784 0 0 0 518.912 189.44000000000005c-49.7664 0-90.6752 19.3536-116.1216 50.8928-24.32 28.2112-33.7408 66.56-33.7408 96.768 0 44.2368 17.7152 77.9776 36.5056 106.1888L517.12 606.2080000000001z m-158.72-274.8416a82.3296 82.3296 0 0 1 83.5072-84.5824 84.2752 84.2752 0 0 1 85.1456 85.7088c0 52.5312-39.8336 87.04-84.0704 87.04-39.2704 0-84.5824-29.2864-84.5824-87.3472z"  horiz-adv-x="1024" />

    
    <glyph glyph-name="circle-5" unicode="&#59079;" d="M512-45.004800000000046A434.1248 434.1248 0 1 0 946.1248 389.12 434.6368 434.6368 0 0 0 512-45.004800000000046z m0 817.0496A382.9248 382.9248 0 1 1 894.9248 389.12 383.3856 383.3856 0 0 1 512 772.0448zM630.4256 590.848v-55.296H473.3952L455.168 435.2a111.4624 111.4624 0 0 0 69.6832 21.5552c89.0368 0 136.0384-74.6496 136.0384-138.24A145.1008 145.1008 0 0 0 513.2288 174.08000000000004c-72.448 0-136.0384 46.4384-147.0976 122.2144h65.2288a83.1488 83.1488 0 0 1 80.1792-64.8704 86.272 86.272 0 0 1 84.5824 85.7088 84.8384 84.8384 0 0 1-84.5824 85.7088c-19.3536 0-48.64-6.0928-71.68-40.96l-53.0944 13.2608 36.3008 215.7056z"  horiz-adv-x="1024" />

    
    <glyph glyph-name="circle-3" unicode="&#59080;" d="M512-45.004800000000046A434.1248 434.1248 0 1 0 946.1248 389.12 434.6368 434.6368 0 0 0 512-45.004800000000046z m0 817.0496A382.9248 382.9248 0 1 1 894.9248 389.12 383.3856 383.3856 0 0 1 512 772.0448zM400.4352 485.0176c2.7648 82.3808 69.6832 112.2304 120.5248 112.2304 65.792 0 113.3568-44.8 113.3568-104.4992 0-46.4384-29.2864-72.448-55.296-86.272 73.5232-25.6 80.1792-84.5824 80.1792-105.6256 0-73.5232-61.44-128.3072-139.9296-128.3072-42.5984 0-89.0368 17.7152-114.4832 52.5312a140.3904 140.3904 0 0 0-24.32 75.776h65.8432a73.216 73.216 0 0 1 74.6496-70.7584c46.4384 0 73.0112 33.1776 73.0112 74.0864 0 42.0352-36.5056 72.448-82.3808 72.448H481.28v49.2544h19.3536c42.5984 0 69.12 28.2112 69.12 58.0608 0 30.72-19.3536 55.8592-50.8928 55.8592-38.7072 0-52.5312-30.4128-54.1696-54.7328z"  horiz-adv-x="1024" />

    
    <glyph glyph-name="circle-2" unicode="&#59081;" d="M512-45.004800000000046A434.1248 434.1248 0 1 0 946.1248 389.12 434.6368 434.6368 0 0 0 512-45.004800000000046z m0 817.0496A382.9248 382.9248 0 1 1 894.9248 389.12 383.3856 383.3856 0 0 1 512 772.0448zM382.72 242.02239999999995c42.5984 39.8336 84.5824 79.616 126.6176 118.8864 39.2704 35.84 75.2128 66.9184 76.8 115.5584 0 46.4384-30.4128 73.5232-70.7584 73.5232-43.6736 0-68.5568-36.5056-69.6832-88.4736H383.2832c1.1264 35.84 9.4208 69.12 32.0512 97.28 29.2864 39.8336 76.8 48.64 105.6256 48.64 81.3056 0 130.5088-57.4976 129.9456-126.6176-1.1264-45.3632-19.3536-78.5408-64.1536-122.2144-38.144-37.5808-76.288-75.2128-114.9952-112.64h180.8384v-55.296H382.72z"  horiz-adv-x="1024" />

    
    <glyph glyph-name="WiFi" unicode="&#59089;" d="M252.416 322.56c72.704 71.168 159.744 107.008 262.144 107.008s189.44-35.84 260.608-107.008L701.44 246.784c-51.712 51.712-114.176 77.312-187.904 77.312s-136.192-25.6-187.904-77.312L252.416 322.56z m148.992-151.04c30.208 30.208 68.096 45.568 112.128 45.568s81.92-15.36 112.128-45.568l-112.128-112.128-112.128 112.128zM99.84 471.552c114.688 113.664 252.416 169.984 413.184 169.984s297.984-56.832 411.648-169.984l-75.264-75.264c-93.696 92.16-205.824 138.752-336.896 138.752s-243.2-46.08-336.896-138.752L99.84 471.552z"  horiz-adv-x="1024" />

    
    <glyph glyph-name="no-power" unicode="&#59086;" d="M258.5088 517.8368H343.04v-267.6224H258.5088zM900.8128 517.8368h-53.504V624.64H151.4496v-481.28h695.8592v106.8032h53.504zM793.6 196.65920000000006H204.8V571.3408h588.8z"  horiz-adv-x="1024" />

    
    <glyph glyph-name="electricity" unicode="&#59087;" d="M258.5088 517.8368h374.6816v-267.6224H258.5088zM900.8128 517.8368h-53.504V624.64H151.4496v-481.28h695.8592v106.8032h53.504zM793.6 196.65920000000006H204.8V571.3408h588.8z"  horiz-adv-x="1024" />

    
    <glyph glyph-name="warning" unicode="&#59088;" d="M461.9008 230.47680000000003v472.576h100.352v-472.576zM461.55264 64.75264000000004v100.352h100.352v-100.352z"  horiz-adv-x="1024" />

    
    <glyph glyph-name="renwuzhong" unicode="&#59092;" d="M760.7296 596.3776l-291.1744-291.1232-196.0448 196.0448-71.0656-71.0656 267.1104-267.1104 362.24 362.1888-71.0656 71.0656z"  horiz-adv-x="1024" />

    
    <glyph glyph-name="no-WiFi" unicode="&#59090;" d="M513.792 217.03679999999997a152.576 152.576 0 0 1-112.128-45.6192l112.2816-112.2816L593.0496 138.24zM600.9856 310.37440000000004a257.4336 257.4336 0 0 0 100.4544-63.488L775.3728 322.55999999999995q-107.008 107.008-260.5568 107.008c-10.9056 0-21.6064-0.512-32.2048-1.28zM341.6576 388.1472A379.3408 379.3408 0 0 1 252.5184 322.55999999999995l73.6768-75.4688a258.5088 258.5088 0 0 0 95.5392 61.7472zM185.9072 543.0784a628.224 628.224 0 0 1-86.2208-71.68L175.104 395.9808A503.6032 503.6032 0 0 0 263.424 465.92zM512.8704 641.6384a586.7008 586.7008 0 0 1-208.384-36.4544l85.8112-85.2992A495.104 495.104 0 0 0 512 534.5792q196.5056 0 336.896-138.5984l75.4688 75.4688q-170.24 170.1888-411.4944 170.1888zM657.38752 121.05727999999999L183.28064 592.52224l43.25376 43.4944 474.10176-471.46496z"  horiz-adv-x="1024" />

    
    <glyph glyph-name="kongxian" unicode="&#59091;" d="M536.832 397.2096V693.504H436.3264v-396.8h396.7488V397.2096h-296.2432z"  horiz-adv-x="1024" />

    
    <glyph glyph-name="arrow-left" unicode="&#59094;" d="M603.392 131.1744a30.72 30.72 0 0 0-21.7088 9.0112l-224.0512 224a30.72 30.72 0 0 0 0 43.4176l224 224a30.72 30.72 0 0 0 43.4176-43.4688l-202.24-202.24 202.2912-202.2912a30.72 30.72 0 0 0-21.7088-52.4288z"  horiz-adv-x="1024" />

    
    <glyph glyph-name="shanchu" unicode="&#59103;" d="M752.2816 534.2208H647.68V593.2032a45.2096 45.2096 0 0 1-45.1584 45.1584H421.5808a45.2096 45.2096 0 0 1-45.1584-45.1584v-58.9824H271.8208a21.0944 21.0944 0 1 1 0-42.1888h33.1264v-329.1136A53.6064 53.6064 0 0 1 358.4 109.3632h307.2a53.6064 53.6064 0 0 1 53.5552 53.5552V492.032h33.1264a21.0944 21.0944 0 0 1 0 42.1888zM418.6112 593.2032a3.072 3.072 0 0 0 2.9696 2.9696h180.9408a3.072 3.072 0 0 0 2.9696-2.9696v-58.9824h-186.88z m258.304-430.08a11.52 11.52 0 0 0-11.3152-11.5712H358.4a11.52 11.52 0 0 0-11.3664 11.3664V492.032h329.7792zM572.672 195.3792a21.0944 21.0944 0 0 1 21.0944 21.0944V423.5776a21.0944 21.0944 0 1 1-42.1888 0v-207.2576a21.0944 21.0944 0 0 1 21.0944-20.9408zM449.4848 195.3792a21.0944 21.0944 0 0 1 21.0944 21.0944V423.5776a21.0944 21.0944 0 0 1-42.1888 0v-207.2576a21.0944 21.0944 0 0 1 21.0944-20.9408z"  horiz-adv-x="1024" />

    
    <glyph glyph-name="suoxiao" unicode="&#59105;" d="M726.341818 822.225455h99.141818a124.974545 124.974545 0 0 0 124.741819-124.741819v-99.141818h23.272727V697.483636a148.247273 148.247273 0 0 1-148.014546 148.014546h-99.141818zM73.774545 598.341818V697.483636a124.974545 124.974545 0 0 0 124.741819 124.741819h97.047272v23.272727H198.516364a148.247273 148.247273 0 0 1-148.014546-148.014546v-99.141818zM295.563636-54.225455H198.516364a124.974545 124.974545 0 0 0-124.741819 124.741819V167.563636h-23.272727v-97.047272a148.247273 148.247273 0 0 1 148.014546-148.014546h97.047272zM950.225455 167.563636v-97.047272a124.974545 124.974545 0 0 0-124.741819-124.741819h-99.141818v-23.272727h99.141818a148.247273 148.247273 0 0 1 148.014546 148.014546V167.563636zM238.778182 421.701818l546.210909 0 0-75.170909-546.210909 0 0 75.170909Z"  horiz-adv-x="1024" />

    
    <glyph glyph-name="fangda" unicode="&#59106;" d="M726.341818 822.225455h99.141818a124.974545 124.974545 0 0 0 124.741819-124.741819v-99.141818h23.272727V697.483636a148.247273 148.247273 0 0 1-148.014546 148.014546h-99.141818zM73.774545 598.341818V697.483636a124.974545 124.974545 0 0 0 124.741819 124.741819h97.047272v23.272727H198.516364a148.247273 148.247273 0 0 1-148.014546-148.014546v-99.141818zM295.563636-54.225455H198.516364a124.974545 124.974545 0 0 0-124.741819 124.741819V167.563636h-23.272727v-97.047272a148.247273 148.247273 0 0 1 148.014546-148.014546h97.047272zM950.225455 167.563636v-97.047272a124.974545 124.974545 0 0 0-124.741819-124.741819h-99.141818v-23.272727h99.141818a148.247273 148.247273 0 0 1 148.014546 148.014546V167.563636zM238.778182 421.701818l546.210909 0 0-75.170909-546.210909 0 0 75.170909ZM549.701818 657.221818l0-546.210909-75.170909 0 0 546.210909 75.170909 0Z"  horiz-adv-x="1024" />

    
    <glyph glyph-name="wait" unicode="&#59101;" d="M773.632 389.4272a21.8112 21.8112 0 0 1-21.8112-21.8112A239.5136 239.5136 0 1 0 624.64 579.2256h-42.24a21.8112 21.8112 0 0 1 0-43.5712h111.36L689.664 655.36a21.8112 21.8112 0 1 1-43.6224 0v-1.4848l1.3312-37.376h-0.3584a283.2384 283.2384 0 1 1 148.48-249.0368 21.8112 21.8112 0 0 1-21.8624 21.9648zM501.76 506.88a21.8112 21.8112 0 0 1-21.8112-21.8112v-143.36l125.2352-76.8a21.8112 21.8112 0 0 1 22.8864 37.0688l-104.5504 64.2048V485.2736A21.8112 21.8112 0 0 1 501.76 506.88z"  horiz-adv-x="1024" />

    
    <glyph glyph-name="shelf" unicode="&#59102;" d="M717.7216 645.12a18.7392 18.7392 0 0 1-18.7392-18.7392v-100.1984h-54.6304v28.672h-107.52v-28.672h-45.568v28.672h-107.52v-28.672H325.1712v99.84a18.8928 18.8928 0 1 1-37.7856 0v-484.5568a18.8928 18.8928 0 0 1 37.7856 0v101.2736h373.76v-101.2736a18.8928 18.8928 0 0 1 37.7856 0V626.0224000000001a18.7392 18.7392 0 0 1-18.7392 19.0976z m-18.7392-364.3392h-54.6304v27.2896h-107.52v-27.2896h-45.568v27.2896h-107.52v-27.2896H325.1712v84.9408h373.76z m0 122.88h-54.6304v29.2352h-107.52v-29.696h-45.568v29.5936h-107.52v-29.5424H325.1712V488.3968h373.76z"  horiz-adv-x="1024" />

    
    <glyph glyph-name="road" unicode="&#59104;" d="M685.090837 470.939558h-315.311647a46.177899 46.177899 0 0 0-46.127042 46.127042v2.034269A46.177899 46.177899 0 0 0 369.77919 565.431338h40.329377a48.110454 48.110454 0 0 1 87.676981 0h187.305289a19.935833 19.935833 0 1 1 0 39.82081H497.785548a48.110454 48.110454 0 0 1-87.676981 0h-40.329377a86.049565 86.049565 0 0 1-85.947852-85.947852v-2.034269a86.049565 86.049565 0 0 1 85.947852-86.100422h315.311647a46.177899 46.177899 0 0 0 46.127042-46.127042v-2.034269a46.177899 46.177899 0 0 0-46.127042-46.127042h-20.647827a48.110454 48.110454 0 0 1-87.676981 0h-206.986839a86.049565 86.049565 0 0 1-85.947852-85.947852v-2.034269a86.049565 86.049565 0 0 1 85.947852-85.998709h40.329377a48.110454 48.110454 0 0 1 87.676981 0h187.305289a19.935833 19.935833 0 1 1 0 39.82081H497.785548a48.110454 48.110454 0 0 1-87.676981 0h-40.329377a46.177899 46.177899 0 0 0-46.127042 46.127042v2.034269a46.177899 46.177899 0 0 0 46.127042 46.127042h206.986839a48.110454 48.110454 0 0 1 87.676981 0h20.647827a86.049565 86.049565 0 0 1 85.947852 85.947852v2.034269a86.049565 86.049565 0 0 1-85.947852 85.947852z"  horiz-adv-x="1024" />

    
    <glyph glyph-name="area-shelf" unicode="&#59107;" d="M802.645846 522.7371370000001h-64.32032a22.089289 22.089289 0 0 1 0-44.127327h42.179779v-276.756757H244.570971v276.756757h44.486086a22.089289 22.089289 0 0 1 2.05005 44.127327H222.379179a22.089289 22.089289 0 0 1-22.089289-22.089289v-320.986587a22.089289 22.089289 0 0 1 22.089289-22.089289h580.266667a22.089289 22.089289 0 0 1 22.089289 22.089289V500.699099a22.089289 22.089289 0 0 1-22.089289 22.038038zM371.059059 319.628428a13.017818 13.017818 0 0 1 12.915315 12.966567V402.245445h257.178779v-69.65045a13.017818 13.017818 0 0 1 25.984385 0v333.133133a13.017818 13.017818 0 0 1-25.984385 0v-68.574174h-37.464665v19.731732h-74.058058v-19.731732h-31.365765v19.731732H424.257858v-19.731732h-40.283484V665.7793790000001a13.017818 13.017818 0 0 1-25.984384 0v-333.133133a13.017818 13.017818 0 0 1 13.069069-13.017818z m12.915315 251.541142h257.178779v-58.477678h-37.464665v20.5005h-74.058058v-20.5005h-31.365765v20.5005H424.257858v-20.5005h-40.283484z m0-84.462062h257.178779v-58.477678h-37.464665v18.757958h-74.058058v-18.757958h-31.365765v18.757958H424.257858v-18.757958h-40.283484z"  horiz-adv-x="1024" />

    
    <glyph glyph-name="station" unicode="&#59108;" d="M774.7072 608.5632H258.2528a22.528 22.528 0 0 1-22.528-22.528v-326.912a22.528 22.528 0 0 1 22.528-22.528h236.1344a22.528 22.528 0 0 1-0.4608-4.6592v-49.408a22.528 22.528 0 0 1 0.6144-5.12H426.2912a22.528 22.528 0 1 1 0-45.1072h180.3776a22.528 22.528 0 1 1 0 45.1072h-68.2496a22.528 22.528 0 0 1 0.6144 5.12v49.408a22.528 22.528 0 0 1-0.4608 4.4544h236.0832a22.528 22.528 0 0 1 22.528 22.528V585.8304a22.528 22.528 0 0 1-22.3232 22.7328zM751.9744 281.6h-471.04V563.2h471.04z"  horiz-adv-x="1024" />

    
    <glyph glyph-name="stop-point" unicode="&#59109;" d="M709.400348 420.642265a196.408642 196.408642 0 0 1-392.817284 0c0-69.165135 64.893171-165.640328 196.408642-285.763894 131.515471 120.326993 196.408642 216.598758 196.408642 285.763894zM495.344425 79.08855200000005c-153.943283 137.058853-231.957487 249.452198-231.957487 341.553713a249.604768 249.604768 0 0 0 499.209536 0c0-92.050658-77.963347-204.545716-231.957487-341.502856l-17.647281-15.765582z m17.647281 225.702111a115.851602 115.851602 0 1 0 115.851602 115.851602 115.851602 115.851602 0 0 0-115.851602-115.851602z m0 53.196126a62.604619 62.604619 0 1 1-62.604619 62.604619 62.604619 62.604619 0 0 1 62.604619-62.604619z"  horiz-adv-x="1024" />

    
    <glyph glyph-name="charge-place" unicode="&#59110;" d="M693.248 526.1312h-62.2592V668.0576a24.2176 24.2176 0 0 1-48.4352 0v-141.9264h-138.24V668.0576a24.2176 24.2176 0 0 1-48.4352 0v-141.9264H330.8032a61.44 61.44 0 0 1-61.44-61.44v-323.8912a61.44 61.44 0 0 1 61.44-61.44h362.3424a61.44 61.44 0 0 1 61.44 61.44V464.64a61.44 61.44 0 0 1-61.3376 61.4912z m13.0048-385.3824a13.2096 13.2096 0 0 0-13.056-13.056H330.8032a13.2096 13.2096 0 0 0-13.056 13.056V464.64a13.2096 13.2096 0 0 0 13.056 13.056h362.3424a13.2096 13.2096 0 0 0 13.056-13.056zM535.5008 407.8592a23.6544 23.6544 0 1 1-40.2432 24.7296v-0.3072l-88.8832-147.3536h126.6176L477.3376 194.55999999999995a23.6544 23.6544 0 0 1 39.7312-25.6l0.512 0.8704 100.0448 162.304h-127.488z"  horiz-adv-x="1024" />

    
    <glyph glyph-name="setting" unicode="&#59111;" d="M818.3296 433.5104a43.5712 43.5712 0 0 1-43.5712 41.8816h-25.1904a8.8064 8.8064 0 0 0-8.1408 5.4272V481.28a25.6 25.6 0 0 0 6.7584 12.6464l18.0736 18.0736a24.1664 24.1664 0 0 1 7.168 17.3568 13.9776 13.9776 0 0 1-0.3584 3.7376 40.96 40.96 0 0 1-11.9296 34.4064L693.248 634.88a41.472 41.472 0 0 1-29.6448 12.2368 42.0352 42.0352 0 0 1-29.5936-12.2368l-18.0224-17.7152a8.5504 8.5504 0 0 0-6.0928-2.7136 12.1344 12.1344 0 0 0-3.3792 0.6656 8.3968 8.3968 0 0 0-5.4272 7.8336v25.344c0 23.1424-18.688 44.288-41.8816 44.288H463.7696c-23.1424 0-41.8816-21.4528-41.8816-44.288v-25.1904a8.0384 8.0384 0 0 0-5.12-7.8336 10.24 10.24 0 0 0-3.3792-0.6656 8.5504 8.5504 0 0 0-6.144 2.7136L389.12 634.88a41.9328 41.9328 0 0 1-59.2384 0l-67.072-68.2496a41.5232 41.5232 0 0 1 0-58.6752l17.7152-18.0224a8.9088 8.9088 0 0 0 2.048-9.5232 8.4992 8.4992 0 0 0-8.1408-5.376h-25.1904a43.3152 43.3152 0 0 1-43.5712-41.8816v-95.6416a43.3152 43.3152 0 0 1 43.5712-41.8816h25.1904a8.8064 8.8064 0 0 0 8.1408-5.4272 8.5504 8.5504 0 0 0-2.048-9.5232l-17.7152-18.0224a41.5232 41.5232 0 0 1 0-58.6752L330.752 135.67999999999995a41.984 41.984 0 0 1 58.2144-1.024 23.8592 23.8592 0 0 1 5.7856 4.4544l16.384 16.384a6.6048 6.6048 0 0 0 2.7136 0.3584 12.1344 12.1344 0 0 0 3.3792-0.6656 8.3968 8.3968 0 0 0 5.4272-7.8336v-25.1904a43.52 43.52 0 0 1 41.8816-43.5712h95.5904a40.96 40.96 0 0 1 27.5456 11.2128 27.648 27.648 0 0 1 14.2848 23.8592v26.88a25.6 25.6 0 0 0 6.0928 16.384 5.7856 5.7856 0 0 0 2.4064 0.3584 8.5504 8.5504 0 0 0 6.0928-2.7136l18.0224-17.7152a41.984 41.984 0 0 1 58.2144-1.024 23.8592 23.8592 0 0 1 5.7856 4.4544l67.7376 67.7376a24.1664 24.1664 0 0 1 7.168 17.3568 13.9776 13.9776 0 0 1-0.3584 3.7376 40.96 40.96 0 0 1-11.9296 34.4064l-17.664 18.0736a8.0384 8.0384 0 0 0-2.048 3.072 22.016 22.016 0 0 0 1.3824 4.4544 25.2928 25.2928 0 0 0 4.4544 7.168 5.7856 5.7856 0 0 0 2.4064 0.3584h25.1904a43.6736 43.6736 0 0 1 29.952 11.9296 25.6 25.6 0 0 1 13.6192 21.4528V433.5104z m-45.6192 95.3856c-0.3072-0.3072-0.3072 0.0512 0 0.0512zM464.0256 650.24h95.6928v-27.648a50.5344 50.5344 0 0 1 30.72-46.6432 47.0016 47.0016 0 0 1 19.4048-3.7376 50.7392 50.7392 0 0 1 33.6896 12.9024 32.4096 32.4096 0 0 1 6.6048 5.12l13.824 13.4144 67.072-66.56-18.0224-17.7152a50.2272 50.2272 0 0 1 35.84-85.8624h26.88v-95.6416h-26.88a50.5344 50.5344 0 0 1-35.84-86.1184l18.0224-17.7152-67.7376-67.7376-17.92 17.9712a49.8688 49.8688 0 0 1-35.84 14.6432 53.1968 53.1968 0 0 1-19.4048-3.7376 49.9712 49.9712 0 0 1-30.72-46.6432v-26.88H464.0256V148.48000000000002a50.5344 50.5344 0 0 1-30.72 46.6432 53.1968 53.1968 0 0 1-19.4048 3.7376 49.8688 49.8688 0 0 1-35.84-14.6432l-18.0224-17.7152-67.328 66.56 4.096 4.096 18.2272 18.176a33.8432 33.8432 0 0 1 9.5232 27.2384 49.5104 49.5104 0 0 1-3.7376 24.1664 50.3296 50.3296 0 0 1-46.7456 31.1808h-26.88V433.5104h26.88a50.4832 50.4832 0 0 1 34.4064 13.2608 32.2048 32.2048 0 0 1 13.6192 15.6672 36.6592 36.6592 0 0 1 2.4064 15.9744 48.8448 48.8448 0 0 1-14.6432 40.96l-17.2032 17.1008 4.096 4.096 63.488 63.1296 17.0496-17.0496a49.8688 49.8688 0 0 1 35.84-14.6432 54.5792 54.5792 0 0 1 19.4048 3.7376 53.3504 53.3504 0 0 1 14.6432 9.216 32.7168 32.7168 0 0 1 16.384 28.9792V650.24zM593.92 95.84640000000002h-1.7408a10.24 10.24 0 0 1 1.7408 2.4064zM810.496 312.32000000000005h-1.536c0.6656 0.6656 1.024 1.3824 1.7408 2.048zM385.024 385.8944A126.976 126.976 0 1 1 512 512.9216a126.976 126.976 0 0 1-126.976-127.0272zM512 471.04a85.0944 85.0944 0 1 0-85.0944-85.1456A85.4528 85.4528 0 0 0 512 471.04z"  horiz-adv-x="1024" />

    
    <glyph glyph-name="close" unicode="&#59112;" d="M542.016002 384.038807L1017.079594 859.528848a21.322423 21.322423 0 1 1-30.277841 30.277841L511.738161 414.316648 36.24812 889.38024a21.322423 21.322423 0 0 1-29.851393-29.851392L481.460319 384.038807 6.396727-91.451234a21.322423 21.322423 0 1 1 30.277841-30.277841L511.738161 353.76096600000005l475.490041-475.063593a21.322423 21.322423 0 0 1 30.277841 30.277841z"  horiz-adv-x="1024" />

    
    <glyph glyph-name="huifuyunhang" unicode="&#59113;" d="M146.285714 896l731.428572-512-731.428572-512V896z"  horiz-adv-x="1024" />

    
    <glyph glyph-name="xitongjiting" unicode="&#59114;" d="M146.285714 896h146.285715v-1024H146.285714zM731.428571 896h146.285715v-1024h-146.285715z"  horiz-adv-x="1024" />

    
    <glyph glyph-name="gengduo" unicode="&#59115;" d="M512 827.733333A443.733333 443.733333 0 1 0 68.266667 384 443.733333 443.733333 0 0 0 512 827.733333m0 68.266667a512 512 0 1 1 512-512A512 512 0 0 1 512 896zM273.066667 452.266667a68.266667 68.266667 0 1 1 68.266666-68.266667 68.266667 68.266667 0 0 1-68.266666 68.266667zM512 452.266667a68.266667 68.266667 0 1 1 68.266667-68.266667 68.266667 68.266667 0 0 1-68.266667 68.266667zM750.933333 452.266667a68.266667 68.266667 0 1 1 68.266667-68.266667 68.266667 68.266667 0 0 1-68.266667 68.266667z"  horiz-adv-x="1024" />

    
    <glyph glyph-name="big-charge" unicode="&#59116;" d="M814.762667 618.837333h-104.448V855.722667a40.277333 40.277333 0 0 1-80.554667 0v-236.885334h-230.741333V855.722667a40.277333 40.277333 0 0 1-80.554667 0v-236.885334h-109.226667a102.4 102.4 0 0 1-102.4-102.4V-25.600000000000023a102.4 102.4 0 0 1 102.4-102.4h605.525334a102.4 102.4 0 0 1 102.4 102.4V515.413333a102.4 102.4 0 0 1-102.4 103.424zM836.266667-25.600000000000023a22.528 22.528 0 0 0-21.504-22.186667H209.237333A21.504 21.504 0 0 0 187.733333-25.600000000000023V517.12a22.528 22.528 0 0 0 21.504 22.186667h605.525334a21.504 21.504 0 0 0 21.504-22.186667zM551.253333 421.205333a39.253333 39.253333 0 0 1-64.853333 44.373334l-2.730667-3.413334-147.797333-246.101333H546.133333l-92.16-151.552a39.253333 39.253333 0 0 1 14.677334-53.930667 39.936 39.936 0 0 1 52.224 11.264v1.706667l166.912 271.018667h-212.650667z"  horiz-adv-x="1024" />

    
    <glyph glyph-name="big-wait" unicode="&#59117;" d="M963.850025 399.272121a37.54041 37.54041 0 0 1-37.881686-37.881686A414.650892 414.650892 0 1 0 705.845026 725.191135h-72.350608a37.54041 37.54041 0 0 1 0-75.08082h192.47992L819.148809 857.947675a37.881686 37.881686 0 1 1-76.10465 0v-2.730211l2.730212-64.50125a488.025329 488.025329 0 1 1 256.298617-429.325779 36.516581 36.516581 0 0 1-38.222963 37.881686zM494.936177 602.6728880000001a37.54041 37.54041 0 0 1-37.881686-37.881687V315.65939000000003l216.369272-132.415264a37.54041 37.54041 0 0 1 51.191468 15.016164 38.564239 38.564239 0 0 1-11.6034 49.485086l-180.193967 110.573571v204.765872a37.54041 37.54041 0 0 1-37.881687 39.588069z"  horiz-adv-x="1024" />

    
    <glyph glyph-name="big-areaStation" unicode="&#59118;" d="M983.04 806.229333H40.96A41.642667 41.642667 0 0 1 0 765.269333V168.96000000000004a41.642667 41.642667 0 0 1 40.96-40.96h430.762667a25.941333 25.941333 0 0 1 0-8.533333v-89.770667a31.744 31.744 0 0 1 0-9.216h-124.245334a40.96 40.96 0 1 1 0-82.261333h329.045334a40.96 40.96 0 1 1 0 82.261333h-124.245334a31.744 31.744 0 0 1 0 9.216v89.770667a25.941333 25.941333 0 0 1 0 8.533333H983.04a41.642667 41.642667 0 0 1 40.96 40.96V765.269333a40.96 40.96 0 0 1-40.96 40.96z m-40.96-595.968H82.261333V725.333333h859.477334z"  horiz-adv-x="1024" />

    
    <glyph glyph-name="big-shelf" unicode="&#59119;" d="M915.450217 895.985323a37.2048 37.2048 0 0 1-37.2048-37.2048v-195.581197h-107.17713V719.17719h-210.940977v-55.977864h-89.428051V719.17719H260.099611v-55.977864H145.413254V858.780523A37.887457 37.887457 0 0 1 108.549783 895.985323a37.887457 37.887457 0 0 1-37.2048-37.2048v-949.575723A37.887457 37.887457 0 0 1 108.549783-128a37.887457 37.887457 0 0 1 37.2048 37.2048v198.653153h732.832163v-198.653153a37.2048 37.2048 0 0 1 74.4096 0V858.780523A36.522143 36.522143 0 0 1 915.450217 895.985323z m-36.863471-713.71777h-107.518459v53.247237h-210.940977v-53.247237h-89.428051v53.247237H260.099611v-53.247237H145.413254V349.859817h733.173492z m0 240.977879h-107.518459v58.025835h-210.940977v-58.367163h-89.428051v58.367163H260.099611v-58.367163H145.413254V588.789726h733.173492z"  horiz-adv-x="1024" />

    
    <glyph glyph-name="big-edit" unicode="&#59120;" d="M985.655855 687.096982L813.572253 860.202862A119.265863 119.265863 0 0 1 644.896247 861.90666l-1.703798-1.703798-545.215372-545.215372a38.846595 38.846595 0 0 1-10.222789-18.741778L4.268184-81.31593399999997a38.505836 38.505836 0 0 1 10.222789-34.075961 38.165076 38.165076 0 0 1 34.07596-9.882028l371.087213 89.619777a37.142797 37.142797 0 0 1 18.06026 10.222788l545.215372 545.215372a119.606622 119.606622 0 0 1 2.726077 167.312968zM92.524923-38.380223l55.884576 249.095273 189.803101-189.803101z m320.654791 92.005094l-233.079572 233.079572L616.6132 723.899019l232.738812-232.738812zM931.475077 572.260994l-27.942288-27.942288-232.738812 233.079572 27.942288 27.942288a42.935711 42.935711 0 0 0 60.65521 0l172.083602-172.083602a43.27647 43.27647 0 0 0 0-60.99597zM379.109135 195.45849799999996m26.745831 26.74583l275.40977 275.40977q26.745831 26.745831 53.491661 0l0.240953-0.240953q26.745831-26.745831 0-53.491662l-275.40977-275.409769q-26.745831-26.745831-53.491661 0l-0.240953 0.240953q-26.745831 26.745831 0 53.491661Z"  horiz-adv-x="1024" />

    
    <glyph glyph-name="big-del" unicode="&#59121;" d="M976.554667 693.589333h-202.410667V807.594667A87.381333 87.381333 0 0 1 687.104 896H337.237333a87.381333 87.381333 0 0 1-87.381333-88.405333v-114.005334H47.445333a40.618667 40.618667 0 0 1 0-81.578666h64.170667V-25.600000000000023a102.4 102.4 0 0 1 102.4-102.4H808.96a102.4 102.4 0 0 1 102.4 102.4V612.010667h64.170667a40.618667 40.618667 0 0 1 0 81.578666zM331.434667 807.594667a5.802667 5.802667 0 0 0 5.802666 5.802666h349.866667a5.802667 5.802667 0 0 0 5.802667-5.802666v-114.005334H331.434667zM830.805333-25.600000000000023a22.186667 22.186667 0 0 0-21.845333-22.528H215.04a22.186667 22.186667 0 0 0-22.186667 22.528V612.010667h637.610667zM631.125333 520.5333330000001a40.618667 40.618667 0 0 1-40.96-40.618666v-401.066667a40.618667 40.618667 0 0 1 81.578667 0V479.573333a40.618667 40.618667 0 0 1-40.618667 40.96zM392.874667 520.5333330000001a40.96 40.96 0 0 1-40.618667-40.618666v-401.066667a40.618667 40.618667 0 0 1 81.578667 0V479.573333a40.96 40.96 0 0 1-40.96 40.96z"  horiz-adv-x="1024" />

    
    <glyph glyph-name="big-areaShelf" unicode="&#59122;" d="M987.137707 545.109333h-105.130667a35.84 35.84 0 0 1-34.133333-37.888 36.522667 36.522667 0 0 1 34.133333-34.133333h68.266667V18.77333299999998H72.364373V472.746667h73.045334a36.181333 36.181333 0 1 1 3.413333 72.362666h-112.64A35.84 35.84 0 0 1 0.001707 508.928v-526.336a35.84 35.84 0 0 1 36.181333-36.181333h951.637333A35.84 35.84 0 0 1 1024.001707-17.408000000000015V508.928a36.522667 36.522667 0 0 1-36.864 36.181333zM279.212373 213.33333300000004a20.821333 20.821333 0 0 1 21.162667 21.162667v112.981333h421.888v-114.346666a21.162667 21.162667 0 1 1 41.984 0v546.133333a21.162667 21.162667 0 1 1-41.984 0v-112.64h-61.44v32.426667h-121.173333v-32.085334h-51.2v32.085334h-121.173334v-32.085334H301.057707v112.64a21.162667 21.162667 0 1 1-41.984 0v-546.133333a19.797333 19.797333 0 0 1 20.138666-20.138667z m21.845334 411.648h421.888v-95.914666h-61.44v34.133333h-120.832v-34.133333h-51.2v34.133333h-121.173334v-34.133333H301.740373V624.981333z m0-138.581333h421.888v-95.914667h-61.44v31.061334h-120.832v-31.061334h-51.2v31.061334h-121.173334v-31.061334H301.740373V486.4z"  horiz-adv-x="1024" />

    
    <glyph glyph-name="big-load" unicode="&#59123;" d="M853.333333 476.16a328.362667 328.362667 0 1 1-656.725333 0c0-115.712 108.885333-277.162667 328.362667-477.866667 218.112 200.704 328.362667 362.154667 328.362666 477.866667zM493.909333-93.866667C236.202667 133.46133299999997 106.154667 322.218667 106.154667 476.16a417.450667 417.450667 0 1 0 835.242666 0c0-153.941333-130.048-341.333333-387.754666-571.392l-29.696-26.282667z m30.037334 375.466667A193.877333 193.877333 0 1 0 716.8 476.16a193.877333 193.877333 0 0 0-192.853333-194.56z m0 89.429333a104.448 104.448 0 1 1-104.448 104.448 104.448 104.448 0 0 1 104.448-104.106666z"  horiz-adv-x="1024" />

    
    <glyph glyph-name="line" unicode="&#59124;" d="M438.857143 896h146.285714v-292.571429H438.857143zM438.857143 530.285714h146.285714v-292.571428H438.857143zM438.857143 164.57142899999997h146.285714v-292.571429H438.857143z"  horiz-adv-x="1024" />

    
    <glyph glyph-name="arrow-right" unicode="&#59125;" d="M286.684804 893.9431a61.645361 61.645361 0 0 0 43.836701-17.80866L779.847694 426.808251a61.645361 61.645361 0 0 0 0-86.988454l-449.326189-449.326189a61.645361 61.645361 0 0 0-86.988454 86.988455l405.489487 402.064745-405.489487 410.969075A61.645361 61.645361 0 0 0 287.369752 895.997945z"  horiz-adv-x="1024" />

    
    <glyph glyph-name="bianjiditu" unicode="&#59126;" d="M985.655855 687.096982L813.572253 860.202862A119.265863 119.265863 0 0 1 644.896247 861.90666V860.202862l-545.215372-545.215372a38.846595 38.846595 0 0 1-10.222789-18.741778L4.268184-81.315934a38.505836 38.505836 0 0 1 10.222789-34.075961 38.165076 38.165076 0 0 1 34.07596-9.882028l371.087213 89.619777a37.142797 37.142797 0 0 1 18.06026 10.222788l545.215372 545.215372a119.606622 119.606622 0 0 1 2.726077 167.312968zM92.524923-38.380223l55.884576 249.095273 189.803101-189.803101z m320.654791 92.005094l-233.079572 233.079572L616.6132 723.899019l232.738812-232.738812zM931.475077 572.260994l-27.942288-27.942288-232.738812 233.079572 27.942288 27.942288a42.935711 42.935711 0 0 0 60.65521 0l172.083602-172.083602a43.27647 43.27647 0 0 0 0-60.99597zM379.251995 195.459207m26.74583 26.745831l275.40977 275.409769q26.745831 26.745831 53.491661 0l0.240954-0.240953q26.745831-26.745831 0-53.491661l-275.40977-275.40977q-26.745831-26.745831-53.491661 0l-0.240954 0.240953q-26.745831 26.745831 0 53.491662Z"  horiz-adv-x="1024" />

    
    <glyph glyph-name="liuchengguanli" unicode="&#59127;" d="M916.48 207.530667a116.394667 116.394667 0 0 1-34.133333-2.048l-158.72 299.349333a118.442667 118.442667 0 1 1-175.445334 10.24 119.125333 119.125333 0 0 1 9.898667-10.24l-158.72-296.96a117.418667 117.418667 0 0 1-29.013333-2.048L211.626667 505.173333a117.418667 117.418667 0 0 1 34.133333 70.997334 118.784 118.784 0 1 1-131.072-104.789334h13.312a117.76 117.76 0 0 1 22.186667 2.389334l158.378666-299.008a117.418667 117.418667 0 0 1-34.133333-70.997334 118.784 118.784 0 0 1 104.789333-131.072h13.312a118.101333 118.101333 0 0 1 70.997334 212.992l153.258666 289.109334 8.874667-2.048h13.312a117.418667 117.418667 0 0 1 22.528 2.389333L819.2 174.08a118.101333 118.101333 0 0 1 68.266667-202.069333h13.312a118.784 118.784 0 0 1 12.970666 236.544zM123.221333 539.306667a50.517333 50.517333 0 0 0 5.461334 100.352h5.461333a50.517333 50.517333 0 0 0 44.373333-55.637334 49.834667 49.834667 0 0 0-18.432-34.133333 50.517333 50.517333 0 0 0-36.864-10.581333zM443.733333 84.309333a50.517333 50.517333 0 1 0-50.176 55.978667h3.413334a32.085333 32.085333 0 0 1 4.096-3.413333 34.133333 34.133333 0 0 1 16.042666-4.096h2.048a49.152 49.152 0 0 0 24.576-48.469334z m190.805334 454.997334a50.517333 50.517333 0 0 0 5.461333 100.352h5.461333a50.517333 50.517333 0 0 0 17.749334-94.890667 50.858667 50.858667 0 0 0-29.354667-5.461333z m319.488-454.997334a50.176 50.176 0 0 0-55.637334-44.373333 50.517333 50.517333 0 0 0 5.461334 100.352h5.802666a50.517333 50.517333 0 0 0 43.690667-55.978667z"  horiz-adv-x="1024" />

    
    <glyph glyph-name="huojialuru" unicode="&#59128;" d="M813.056 617.813333a298.666667 298.666667 0 0 1-594.944 0 213.333333 213.333333 0 0 1 0-426.325333h60.416a34.133333 34.133333 0 0 1 34.133333 34.133333 34.133333 34.133333 0 0 1-34.133333 34.133334H216.405333a145.066667 145.066667 0 1 0 27.306667 287.061333A34.133333 34.133333 0 0 1 273.066667 554.666667a34.133333 34.133333 0 0 1 11.946666 27.306666V588.8a230.4 230.4 0 1 0 460.8 0v-9.216a34.133333 34.133333 0 0 1 40.618667-34.133333 145.066667 145.066667 0 1 0 28.330667-287.061334H750.933333a34.133333 34.133333 0 0 1 0-68.266666h60.074667a213.333333 213.333333 0 0 1 0 426.325333zM514.730667 594.602667m-37.205334 0a37.205333 37.205333 0 1 1 74.410667 0 37.205333 37.205333 0 1 1-74.410667 0ZM514.730667 459.776m-37.205334 0a37.205333 37.205333 0 1 1 74.410667 0 37.205333 37.205333 0 1 1-74.410667 0ZM514.730667 325.290667m-37.205334 0a37.205333 37.205333 0 1 1 74.410667 0 37.205333 37.205333 0 1 1-74.410667 0ZM631.125333 69.973333L546.133333-16.042667v202.752a30.72 30.72 0 1 1-61.44 0v-204.8l-88.405333 88.064a30.72 30.72 0 0 1-43.349333-43.349333l138.922666-138.922667a30.72 30.72 0 0 1 21.845334-8.874666 30.72 30.72 0 0 1 21.845333 8.874666l138.922667 138.922667a30.72 30.72 0 0 1-43.349334 43.349333z"  horiz-adv-x="1024" />

    
    <glyph glyph-name="huojiaxinxiguanli" unicode="&#59129;" d="M787.114667 820.906667H750.933333a34.133333 34.133333 0 0 1 0-68.266667h36.864A96.938667 96.938667 0 0 0 884.053333 657.066667v-594.944a96.938667 96.938667 0 0 0-96.938666-96.938667H245.418667a96.938667 96.938667 0 0 0-96.938667 96.938667V657.066667a96.938667 96.938667 0 0 0 96.938667 95.573333h42.666666a34.133333 34.133333 0 0 1 0 68.266667H245.418667A165.205333 165.205333 0 0 1 80.213333 657.066667v-594.944a165.205333 165.205333 0 0 1 165.205334-165.205334h541.696a165.205333 165.205333 0 0 1 165.205333 165.205334V657.066667a165.205333 165.205333 0 0 1-165.205333 163.84zM769.024 583.338667H263.509333a34.133333 34.133333 0 0 1 0-68.266667h505.514667a34.133333 34.133333 0 0 1 0 68.266667zM803.498667 356.010667a34.133333 34.133333 0 0 1-34.133334 34.133333H263.850667a34.133333 34.133333 0 0 1 0-68.266667h505.514666a34.133333 34.133333 0 0 1 34.133334 34.133334zM263.850667 197.290667a34.133333 34.133333 0 0 1 0-68.266667h347.477333a34.133333 34.133333 0 0 1 0 68.266667zM440.32 701.781333h151.893333a82.261333 82.261333 0 0 1 82.261334 82.261334v5.461333A82.261333 82.261333 0 0 1 592.213333 871.765333H440.32a82.261333 82.261333 0 0 1-82.261333-82.261333v-5.461333a82.261333 82.261333 0 0 1 82.261333-82.261334z m-13.994667 87.722667a14.336 14.336 0 0 0 13.994667 13.994667h151.893333a14.336 14.336 0 0 0 13.994667-13.994667v-5.461333a14.336 14.336 0 0 0-13.994667-13.994667H440.32a14.336 14.336 0 0 0-13.994667 13.994667z"  horiz-adv-x="1024" />

    
    <glyph glyph-name="huizhiditu" unicode="&#59130;" d="M880.981333 702.122667v-11.946667a246.784 246.784 0 0 0-9.898666-65.536 89.429333 89.429333 0 0 0 40.618666-74.752v-160.768l-112.298666 87.722667c-13.653333-20.821333-27.989333-40.96-42.325334-59.733334l154.624-120.832V76.8a89.088 89.088 0 0 0-5.12-28.330667L356.693333 477.184 430.08 568.32a316.074667 316.074667 0 0 0-28.672 122.88v23.210667H201.386667a163.498667 163.498667 0 0 1-163.157334-163.157334V76.8a163.498667 163.498667 0 0 1 163.157334-164.864h621.226666A163.498667 163.498667 0 0 1 985.770667 76.8V550.229333a163.157333 163.157333 0 0 1-104.789334 151.893334zM201.386667 640.341333h192.512L299.008 520.533333l-136.533333 107.861334a89.088 89.088 0 0 0 38.912 11.946666z m0-655.018666A90.112 90.112 0 0 0 111.274667 76.8v119.125333l269.653333-210.602666zM111.274667 288.426667v261.802666a89.088 89.088 0 0 0 3.413333 23.210667l480.938667-375.466667-141.994667-176.128z m711.338666-303.445334h-304.469333l136.533333 167.594667 204.8-160.085333a89.429333 89.429333 0 0 0-36.864-7.509334zM618.154667 424.618667l22.186666-16.725334 22.186667 17.066667c16.384 12.629333 159.061333 125.610667 159.061333 249.514667a181.248 181.248 0 0 1-362.496 0c-0.341333-128 152.234667-244.736 159.061334-249.856z m22.186666 357.717333a108.202667 108.202667 0 0 0 108.202667-108.202667c0-62.464-65.536-134.485333-108.202667-172.714666-42.666667 37.888-107.861333 109.568-107.861333 172.714666a108.202667 108.202667 0 0 0 107.52 108.202667zM641.706667 673.109333m-54.272 0a54.272 54.272 0 1 1 108.544 0 54.272 54.272 0 1 1-108.544 0Z"  horiz-adv-x="1024" />

    
    <glyph glyph-name="free" unicode="&#59131;" d="M642.24 416a29.28 29.28 0 0 1-29.76-21.76v-4.8a102.24 102.24 0 0 0-204.64 0v6.08A32 32 0 0 1 379.36 416H93.12l107.52 168.32s16 30.24 40.32 29.28h544.96c19.04 0 22.24-6.88 36-29.28L930.88 416h-288zM942.08 66.88H81.92a80 80 0 0 0-80 80V407.52a80 80 0 0 0 12.64 43.04l127.52 197.12a80 80 0 0 0 66.88 36.48h605.6a80 80 0 0 0 66.88-36.32l128-197.12a80 80 0 0 0 12.8-43.2v-261.12a80 80 0 0 0-80.16-79.52zM208.96 652.16a48 48 0 0 1-40-21.76L41.92 433.28a48 48 0 0 1-7.52-25.76v-261.12a48 48 0 0 1 48-48h859.68a48 48 0 0 1 48 48V407.36a48 48 0 0 1-7.68 25.76l-128 197.28a48 48 0 0 1-40 21.76z"  horiz-adv-x="1024" />

    
    <glyph glyph-name="arrivel" unicode="&#59132;" d="M720 691.6800000000001c-153.28 0-153.28 62.88-306.72 62.88A332.32 332.32 0 0 1 256 713.12v-470.24a337.44 337.44 0 0 0 157.28 41.44c153.28 0 153.28-62.88 306.72-62.88 96 0 192 50.4 192 50.4V742.56a464 464 0 0 0-192-50.88z m37.92-154.72l-224-158.4a31.04 31.04 0 0 0-16-5.12 26.24 26.24 0 0 0-21.92 11.36l-75.2 101.76a27.36 27.36 0 0 0 44.16 32l58.72-80 202.24 143.2a27.52 27.52 0 1 0 32-44.96zM170.4-26.559999999999945a40 40 0 0 0-40 40V688a40 40 0 1 0 80 0v-674.56a40 40 0 0 0-40-40z"  horiz-adv-x="1024" />

    
    <glyph glyph-name="tingkaodian" unicode="&#59133;" d="M787.2 439.52a274.24 274.24 0 1 1-548.64 0c0-96 90.88-241.12 274.24-408.8C695.04 198.4 787.2 342.88 787.2 439.52zM781.12 438.08a268.16 268.16 0 0 1-536.32 0c0-94.56 88.96-231.36 268.16-395.36C698.08 208 781.12 343.68 781.12 438.08zM489.28 0C293.44 173.44 194.56 316.96 194.56 433.92a317.44 317.44 0 0 0 635.04 0c0-116.96-98.88-259.52-294.72-434.4L512-20.48zM512 286.08a147.36 147.36 0 1 0 146.56 148.16A147.36 147.36 0 0 0 512 286.08z m0 42.88a104.64 104.64 0 1 1-104.64 104.64A104.64 104.64 0 0 1 512 329.12z"  horiz-adv-x="1024" />

    
    <glyph glyph-name="quyu" unicode="&#59134;" d="M152.32 741.6m196.96 0l324 0q196.96 0 196.96-196.96l0-321.76q0-196.96-196.96-196.96l-324 0q-196.96 0-196.96 196.96l0 321.76q0 196.96 196.96 196.96ZM200.32 496h-48v73.44A172.48 172.48 0 0 0 324.64 741.76H400v-48h-75.36a124.48 124.48 0 0 1-124.32-124.32zM400 26.24h-75.36A172.48 172.48 0 0 0 152.32 198.56v70.56h48v-70.56a124.48 124.48 0 0 1 124.32-124.32H400zM697.28 26.24H624v48h74.08a124.48 124.48 0 0 1 124.32 124.32v78.88h48v-78.88a172.48 172.48 0 0 0-173.12-172.32zM869.6 496h-48v73.44a124.48 124.48 0 0 1-124.32 124.32H624v48h74.08a172.48 172.48 0 0 0 171.52-172.32z"  horiz-adv-x="1024" />

    
    <glyph glyph-name="chongdianzhan" unicode="&#59135;" d="M247.36 529.6h519.84v-463.04H247.36zM717.6 567.68h-64V738.4a24 24 0 0 1-48 0v-170.72H426.56V738.4a24 24 0 0 1-48 0v-170.72h-68.8a88.16 88.16 0 0 1-88-88V120a88.16 88.16 0 0 1 88-88h407.84a88.16 88.16 0 0 1 88 88V480a88.16 88.16 0 0 1-88 87.68z m40-448a40 40 0 0 0-40-40H309.76a40 40 0 0 0-40 40V480a40 40 0 0 0 40 40h407.84a40 40 0 0 0 40-40zM534.56 416a24 24 0 1 1-41.44 24.16l-90.88-156.32h138.56l-62.56-104.32a24 24 0 1 1 41.12-24.64l106.24 177.44h-140z"  horiz-adv-x="1024" />

    
    <glyph glyph-name="gongzuozhan" unicode="&#59136;" d="M860.64 656H162.4a30.88 30.88 0 0 1-30.88-30.4v-411.2a30.88 30.88 0 0 1 30.88-30.88h324.8a23.36 23.36 0 0 1 0-2.88V96h-78.56A25.28 25.28 0 0 1 384 71.36v-1.28a25.28 25.28 0 0 1 25.28-25.28h204.96A25.28 25.28 0 0 1 640 70.08v1.28A25.28 25.28 0 0 1 614.24 96H536v84.64a23.36 23.36 0 0 1 0 2.88h324.8a30.88 30.88 0 0 1 30.88 30.88V625.6a30.88 30.88 0 0 1-31.04 30.4zM176.16 609.28h670.56v-378.72H176.16z"  horiz-adv-x="1024" />

    
    <glyph glyph-name="daimingdian" unicode="&#59137;" d="M184.8 669.92m327.04 0l0.16 0q327.04 0 327.04-327.04l0-0.16q0-327.04-327.04-327.04l-0.16 0q-327.04 0-327.04 327.04l0 0.16q0 327.04 327.04 327.04ZM813.44 368a25.12 25.12 0 0 1-25.44-24.96A277.92 277.92 0 1 0 640 586.72h-48a25.12 25.12 0 0 1 0-50.24h128.96l-4.64 139.36a25.44 25.44 0 0 1-51.04 0v-1.76l1.76-43.2a327.04 327.04 0 1 1 171.84-288A24.48 24.48 0 0 1 816 368zM499.2 504.64A25.12 25.12 0 0 1 473.76 480v-167.68L618.88 224a25.12 25.12 0 0 1 34.24 9.92 25.92 25.92 0 0 1-7.84 33.12l-120.64 73.76v137.28a25.12 25.12 0 0 1-23.68 26.56z"  horiz-adv-x="1024" />

    
    <glyph glyph-name="huojiaqu" unicode="&#59138;" d="M168.32 498.88h685.6v-386.72H168.32zM330.56 688h361.12v-391.68H330.56zM346.24 267.68a14.88 14.88 0 0 1 15.04 14.56v80h300.32v-81.44a15.04 15.04 0 1 1 29.92 0V670.72a15.04 15.04 0 1 1-29.92 0v-80h-43.68v22.88h-86.24v-22.88h-36.48v22.88h-86.24v-22.88h-47.2v80a15.04 15.04 0 1 1-29.92 0v-388.8a14.08 14.08 0 0 1 13.92-14.4z m16 293.12h299.84v-68.32h-43.68V516.8h-86.08v-24.32H496V516.8h-86.4v-24.32h-48v68.32z m0-98.72h299.84v-68.32h-43.68V416h-86.08v-22.08H496V416h-86.4v-22.08h-48v68.32zM853.92 78.88H176a24 24 0 0 0-24 24V476.32a24 24 0 0 0 24 24h76.8a24 24 0 1 0 0-48h-52.96v-325.44h630.08V452.32h-44.64a24 24 0 0 0 0 48h68.64a24 24 0 0 0 24-24v-373.44a24 24 0 0 0-24-24z"  horiz-adv-x="1024" />

    
    <glyph glyph-name="gongzuozhan1" unicode="&#59139;" d="M860.64 656H162.4a30.88 30.88 0 0 1-30.88-30.4v-411.2a30.88 30.88 0 0 1 30.88-30.88h324.8a23.36 23.36 0 0 1 0-2.88V96h-78.56A25.28 25.28 0 0 1 384 71.36v-1.28a25.28 25.28 0 0 1 25.28-25.28h204.96A25.28 25.28 0 0 1 640 70.08v1.28A25.28 25.28 0 0 1 614.24 96H536v84.64a23.36 23.36 0 0 1 0 2.88h324.8a30.88 30.88 0 0 1 30.88 30.88V625.6a30.88 30.88 0 0 1-31.04 30.4zM176.16 609.28h670.56v-378.72H176.16z"  horiz-adv-x="1024" />

    
    <glyph glyph-name="chongdianzhan1" unicode="&#59140;" d="M247.36 529.6h519.84v-463.04H247.36zM717.6 567.68h-64V738.4a24 24 0 0 1-48 0v-170.72H426.56V738.4a24 24 0 0 1-48 0v-170.72h-68.8a88.16 88.16 0 0 1-88-88V120a88.16 88.16 0 0 1 88-88h407.84a88.16 88.16 0 0 1 88 88V480a88.16 88.16 0 0 1-88 87.68z m40-448a40 40 0 0 0-40-40H309.76a40 40 0 0 0-40 40V480a40 40 0 0 0 40 40h407.84a40 40 0 0 0 40-40zM534.56 416a24 24 0 1 1-41.44 24.16l-90.88-156.32h138.56l-62.56-104.32a24 24 0 1 1 41.12-24.64l106.24 177.44h-140z"  horiz-adv-x="1024" />

    
    <glyph glyph-name="tingkaodian1" unicode="&#59141;" d="M787.2 439.52a274.24 274.24 0 1 1-548.64 0c0-96 90.88-241.12 274.24-408.8C695.04 198.4 787.2 342.88 787.2 439.52zM781.12 438.08a268.16 268.16 0 0 1-536.32 0c0-94.56 88.96-231.36 268.16-395.36C698.08 208 781.12 343.68 781.12 438.08zM489.28 0C293.44 173.44 194.56 316.96 194.56 433.92a317.44 317.44 0 0 0 635.04 0c0-116.96-98.88-259.52-294.72-434.4L512-20.48z m24.32 285.44a147.36 147.36 0 1 0 146.56 148.16 147.36 147.36 0 0 0-146.4-147.52z m-1.6 43.36a104.64 104.64 0 1 1-104.64 104.64A104.64 104.64 0 0 1 512 329.12z"  horiz-adv-x="1024" />

    
    <glyph glyph-name="huojiaqu1" unicode="&#59142;" d="M168.32 498.88h685.6v-386.72H168.32zM330.56 688h361.12v-391.68H330.56zM346.24 267.68a14.88 14.88 0 0 1 15.04 14.56v80h300.32v-81.44a15.04 15.04 0 1 1 29.92 0V670.72a15.04 15.04 0 1 1-29.92 0v-80h-43.68v22.88h-86.24v-22.88h-36.48v22.88h-86.24v-22.88h-47.2v80a15.04 15.04 0 1 1-29.92 0v-388.8a14.08 14.08 0 0 1 13.92-14.4z m16 293.12h299.84v-68.32h-43.68V516.8h-86.08v-24.32H496V516.8h-86.4v-24.32h-48v68.32z m0-98.72h299.84v-68.32h-43.68V416h-86.08v-22.08H496V416h-86.4v-22.08h-48v68.32zM853.92 78.88H176a24 24 0 0 0-24 24V476.32a24 24 0 0 0 24 24h76.8a24 24 0 1 0 0-48h-52.96v-325.44h630.08V452.32h-44.64a24 24 0 0 0 0 48h68.64a24 24 0 0 0 24-24v-373.44a24 24 0 0 0-24-24z"  horiz-adv-x="1024" />

    
    <glyph glyph-name="daimingdian1" unicode="&#59143;" d="M184.8 669.92m327.04 0l0.16 0q327.04 0 327.04-327.04l0-0.16q0-327.04-327.04-327.04l-0.16 0q-327.04 0-327.04 327.04l0 0.16q0 327.04 327.04 327.04ZM813.44 368a25.12 25.12 0 0 1-25.44-24.96A277.92 277.92 0 1 0 640 586.72h-48a25.12 25.12 0 0 1 0-50.24h128.96l-4.64 139.36a25.44 25.44 0 0 1-51.04 0v-1.76l1.76-43.2a327.04 327.04 0 1 1 171.84-288A24.48 24.48 0 0 1 816 368zM499.2 504.64A25.12 25.12 0 0 1 473.76 480v-167.68L618.88 224a25.12 25.12 0 0 1 34.24 9.92 25.92 25.92 0 0 1-7.84 33.12l-120.64 73.76v137.28a25.12 25.12 0 0 1-23.68 26.56z"  horiz-adv-x="1024" />

    
    <glyph glyph-name="quyu1" unicode="&#59144;" d="M152.32 741.6m196.96 0l324 0q196.96 0 196.96-196.96l0-321.76q0-196.96-196.96-196.96l-324 0q-196.96 0-196.96 196.96l0 321.76q0 196.96 196.96 196.96ZM200.32 569.44a124.48 124.48 0 0 0 124.32 124.32H400v48h-75.36A172.48 172.48 0 0 1 152.32 569.44V496h48zM200.32 198.56v70.56h-48v-70.56a172.48 172.48 0 0 1 172.32-172.32H400v48h-75.36a124.48 124.48 0 0 0-124.32 124.32zM821.6 198.56a124.48 124.48 0 0 0-124.32-124.32H624v-48h74.08a172.48 172.48 0 0 1 171.52 172.32v78.88h-48zM697.28 741.76H624v-48h74.08a124.48 124.48 0 0 0 124.32-124.32V496h48v73.44A172.48 172.48 0 0 1 697.28 741.76z"  horiz-adv-x="1024" />

    
    <glyph glyph-name="leave" unicode="&#59145;" d="M512 744A360 360 0 1 1 872 384 360 360 0 0 1 512 744z m209.76-408.8h-240V570.56a28.8 28.8 0 1 0 57.6 0v-177.76h182.4a28.8 28.8 0 1 0 0-57.6z"  horiz-adv-x="1024" />

    
    <glyph glyph-name="shengyin" unicode="&#59146;" d="M552.704 592.256a19.2 19.2 0 0 1-20.736-3.712l-125.44-118.144h-80.64a64 64 0 0 1-64-64v-44.8a64 64 0 0 1 64-64h80.896L532.736 192a19.2 19.2 0 0 1 31.616 14.72V574.592a19.2 19.2 0 0 1-11.648 17.664z m-26.752-344.32l-99.712 83.84a19.2 19.2 0 0 1-12.8 4.48h-87.552a25.6 25.6 0 0 0-25.6 25.6v44.8a25.6 25.6 0 0 0 25.6 25.6h88.192a19.2 19.2 0 0 1 12.8 5.248l98.56 92.928zM715.008 384l38.4 38.4a19.2 19.2 0 0 1-27.136 27.136l-38.4-38.4-38.4 38.4A19.2 19.2 0 0 1 621.696 422.4l38.4-38.4-38.4-38.4a19.2 19.2 0 1 1 27.136-27.136l38.4 38.4 38.4-38.4A19.2 19.2 0 0 1 753.92 345.6z"  horiz-adv-x="1024" />

    
    <glyph glyph-name="shengyin1" unicode="&#59147;" d="M616.576 514.432a19.2 19.2 0 1 1 0-38.4 88.96 88.96 0 0 0 0-177.792 19.2 19.2 0 1 1 0-38.4 127.36 127.36 0 0 1 0 254.592zM552.704 592.256a19.2 19.2 0 0 1-20.736-3.712l-125.44-118.144h-80.64a64 64 0 0 1-64-64v-44.8a64 64 0 0 1 64-64h80.896L532.736 192a19.2 19.2 0 0 1 31.616 14.72V574.592a19.2 19.2 0 0 1-11.648 17.664z m-26.752-344.32l-99.712 83.84a19.2 19.2 0 0 1-12.8 4.48h-87.552a25.6 25.6 0 0 0-25.6 25.6v44.8a25.6 25.6 0 0 0 25.6 25.6h88.192a19.2 19.2 0 0 1 12.8 5.248l98.56 92.928z"  horiz-adv-x="1024" />

    
    <glyph glyph-name="dengguang" unicode="&#59148;" d="M735.488 354.304L532.48 501.248V627.2a19.2 19.2 0 0 1-38.4 0v-125.568l-204.8-146.944a19.2 19.2 0 0 1 11.264-34.688h423.68a19.2 19.2 0 0 1 11.264 34.688zM360.192 358.4l153.6 109.824L665.6 358.4zM539.52 204.8l38.4 38.4a19.2 19.2 0 0 1-27.136 27.136l-38.4-38.4-38.4 38.4A19.2 19.2 0 0 1 446.848 243.2l38.4-38.4-38.4-38.4A19.2 19.2 0 1 1 473.6 139.264l38.4 38.4 38.4-38.4A19.2 19.2 0 0 1 578.432 166.4z"  horiz-adv-x="1024" />

    
    <glyph glyph-name="dengguang1" unicode="&#59149;" d="M736 354.304L532.864 501.248V627.2a19.2 19.2 0 0 1-38.4 0v-125.568l-204.8-146.944a19.2 19.2 0 0 1 11.264-34.688h423.68a19.2 19.2 0 0 1 11.264 34.688zM360.576 358.4l153.6 109.824L665.6 358.4zM515.2 142.848A130.816 130.816 0 0 0 384 273.536a19.2 19.2 0 1 0 38.4 0 92.288 92.288 0 1 1 184.576 0 19.2 19.2 0 0 0 38.4 0 130.816 130.816 0 0 0-130.176-130.688z"  horiz-adv-x="1024" />

    
    <glyph glyph-name="qianwang" unicode="&#59150;" d="M5555.665455 33.047273L4654.545455 870.865455a93.090909 93.090909 0 0 1-130.327273-4.654546 93.090909 93.090909 0 0 1-21.410909-80.058182 93.090909 93.090909 0 0 1 26.065454-51.2L5255.912727 58.181818H93.090909a93.090909 93.090909 0 0 1 0-186.181818h5399.272727a93.090909 93.090909 0 0 1 63.301819 161.047273z"  horiz-adv-x="5585" />

    
    <glyph glyph-name="renwurizhi" unicode="&#59151;" d="M70.314667 541.354667h129.706666A36.181333 36.181333 0 0 1 238.933333 575.829333a36.181333 36.181333 0 0 1-37.888 34.133334H70.314667a36.181333 36.181333 0 0 1-37.888-34.133334 36.181333 36.181333 0 0 1 37.888-34.474666zM372.736 237.568a34.133333 34.133333 0 1 1 0-68.266667H682.666667a34.133333 34.133333 0 0 1 0 68.266667zM682.666667 422.229333h-309.930667a34.133333 34.133333 0 1 1 0-68.266666H682.666667a34.133333 34.133333 0 0 1 0 68.266666zM682.666667 607.573333h-309.930667a34.133333 34.133333 0 1 1 0-68.266666H682.666667a34.133333 34.133333 0 0 1 0 68.266666zM238.933333 201.728a36.181333 36.181333 0 0 1-37.888 34.133333H70.314667a34.133333 34.133333 0 1 1 0-68.266666h129.706666a36.181333 36.181333 0 0 1 38.912 34.133333zM882.688 500.053333a112.64 112.64 0 1 1 112.64-112.64 112.64 112.64 0 0 1-112.64 112.64z m0-155.648a43.008 43.008 0 1 0 43.008 43.008 43.349333 43.349333 0 0 0-43.008-43.008zM848.896 33.109333a48.128 48.128 0 0 0-48.128-48.128H226.645333a48.128 48.128 0 0 0-48.128 48.128v87.381334h-68.266666v-87.381334a117.418667 117.418667 0 0 1 117.418666-117.418666h573.098667a117.418667 117.418667 0 0 1 117.418667 117.418666v198.656h-68.266667zM178.517333 735.914667a48.128 48.128 0 0 0 48.128 47.786666h574.122667a48.128 48.128 0 0 0 48.128-48.128v-192.170666h68.266667V735.914667a117.418667 117.418667 0 0 1-117.418667 117.418666H226.645333A117.418667 117.418667 0 0 1 109.226667 735.914667V657.066667h68.266666zM109.226667 493.226667h69.290666v-210.261334H109.226667z"  horiz-adv-x="1024" />

    
    <glyph glyph-name="jiqirenguanli" unicode="&#59152;" d="M986.453333 226.986667h-88.746666V384c0 13.653333-13.653333 27.306667-27.306667 27.306667h-331.093333v129.706666h88.746666c13.653333 0 27.306667 13.653333 27.306667 27.306667V800.426667c0 13.653333-13.653333 27.306667-27.306667 27.306666h-232.106666c-13.653333 0-27.306667-13.653333-27.306667-27.306666v-232.106667c0-13.653333 13.653333-27.306667 27.306667-27.306667h88.746666v-129.706666H153.6c-13.653333 0-27.306667-13.653333-27.306667-27.306667v-157.013333H37.546667c-13.653333 0-27.306667-13.653333-27.306667-27.306667v-232.106667c0-13.653333 13.653333-27.306667 27.306667-27.306666h232.106666c17.066667 0 27.306667 13.653333 27.306667 27.306666v232.106667c0 13.653333-13.653333 27.306667-27.306667 27.306667H180.906667v129.706666h300.373333v-129.706666h-88.746667c-13.653333 0-27.306667-13.653333-27.306666-27.306667v-232.106667c0-13.653333 13.653333-27.306667 27.306666-27.306666h232.106667c13.653333 0 27.306667 13.653333 27.306667 27.306666v232.106667c0 13.653333-13.653333 27.306667-27.306667 27.306667h-88.746667v129.706666h303.786667v-129.706666H750.933333c-13.653333 0-27.306667-13.653333-27.306666-27.306667v-232.106667c0-13.653333 13.653333-27.306667 27.306666-27.306666h232.106667c13.653333 0 27.306667 13.653333 27.306667 27.306666v232.106667c3.413333 13.653333-10.24 27.306667-23.893334 27.306667z m-566.613333 546.133333h177.493333v-177.493333h-177.493333V773.12zM242.346667-5.12H64.853333v177.493333h177.493334v-177.493333z m354.986666 0h-177.493333v177.493333h177.493333v-177.493333z m358.4 0h-177.493333v177.493333H955.733333v-177.493333z"  horiz-adv-x="1024" />

    
    <glyph glyph-name="caozuorizhi" unicode="&#59155;" d="M380.586667 385.706667a28.330667 28.330667 0 0 1-28.330667 28.330666H243.370667a28.330667 28.330667 0 1 1 0-56.661333h108.885333a28.330667 28.330667 0 0 1 28.330667 28.330667zM542.72 554.666667a28.330667 28.330667 0 0 1-27.989333 28.330666H243.370667a28.330667 28.330667 0 1 1 0-56.661333h271.018666a28.330667 28.330667 0 0 1 28.330667 28.330667zM243.370667 245.76a28.330667 28.330667 0 0 1 0-56.661333H320.853333a28.330667 28.330667 0 0 1 0 56.661333zM441.685333-18.773333H194.218667A56.32 56.32 0 0 0 142.677333 42.666667V700.416A56.32 56.32 0 0 0 194.218667 759.466667h520.192a56.32 56.32 0 0 0 51.541333-60.074667V554.666667a28.330667 28.330667 0 0 1 56.661333 0V700.416a112.981333 112.981333 0 0 1-108.202666 116.736H194.218667a112.981333 112.981333 0 0 1-108.202667-116.736V42.666667a112.981333 112.981333 0 0 1 108.544-116.394667h247.125333a28.330667 28.330667 0 0 1 0 56.661333zM693.589333 330.752a121.514667 121.514667 0 1 1 121.514667-121.514667 121.514667 121.514667 0 0 1-121.514667 121.514667z m0-189.44a68.266667 68.266667 0 1 0 68.266667 68.266667 68.266667 68.266667 0 0 0-68.266667-68.266667zM958.464 137.898667a94.549333 94.549333 0 0 0-34.133333 71.338666 94.890667 94.890667 0 0 0 34.133333 72.362667 25.6 25.6 0 0 1 5.12 34.133333l-44.373333 75.776a25.6 25.6 0 0 1-30.378667 11.605334 97.962667 97.962667 0 0 0-30.037333-4.437334 97.962667 97.962667 0 0 0-96.256 75.776 25.6 25.6 0 0 1-25.258667 20.138667H648.533333a25.6 25.6 0 0 1-25.258666-20.138667 97.962667 97.962667 0 0 0-96.256-75.776 100.352 100.352 0 0 0-30.72 4.778667 23.210667 23.210667 0 0 1-7.168 0 25.6 25.6 0 0 1-22.186667-12.629333l-44.373333-76.117334a25.941333 25.941333 0 0 1 5.461333-32.426666 94.549333 94.549333 0 0 0 0-142.677334 25.941333 25.941333 0 0 1-5.461333-34.133333l44.373333-75.776a25.6 25.6 0 0 1 30.378667-11.605333 97.962667 97.962667 0 0 0 30.037333 4.437333 97.962667 97.962667 0 0 0 96.256-75.776 25.941333 25.941333 0 0 1 25.258667-20.138667h88.064a25.6 25.6 0 0 1 25.258666 20.138667 97.962667 97.962667 0 0 0 96.256 75.776 102.4 102.4 0 0 0 30.72-4.778667 23.210667 23.210667 0 0 1 7.168 0 25.6 25.6 0 0 1 22.186667 12.629334l44.373333 76.117333a25.941333 25.941333 0 0 1-5.461333 32.426667z m-80.213333-72.704a123.221333 123.221333 0 0 1-31.061334 3.754666 124.586667 124.586667 0 0 1-119.466666-89.088h-68.266667a124.586667 124.586667 0 0 1-119.466667 89.088 126.634667 126.634667 0 0 1-31.061333-3.754666l-34.133333 58.368a120.490667 120.490667 0 0 1 0 170.666666l34.133333 58.368a122.88 122.88 0 0 1 31.061333-3.754666 124.586667 124.586667 0 0 1 119.466667 89.088h68.266667a124.586667 124.586667 0 0 1 119.466666-88.064 126.976 126.976 0 0 1 32.085334 4.096l34.133333-58.368a120.490667 120.490667 0 0 1 0-170.666667z"  horiz-adv-x="1024" />

    
    <glyph glyph-name="gongzuozhan2" unicode="&#59157;" d="M944.5376 712.0896H78.2336a35.2256 35.2256 0 0 1-34.4064-34.4064v-503.3984a35.2256 35.2256 0 0 1 34.4064-34.4064h399.7696a21.7088 21.7088 0 0 1 0-7.3728v-75.776a26.624 26.624 0 0 1 0-7.7824H373.1456a34.816 34.816 0 0 1 0-69.2224h277.7088a34.816 34.816 0 0 1 0 69.2224h-104.8576a27.0336 27.0336 0 0 1 0 7.7824v75.776a21.7088 21.7088 0 0 1 0 7.3728h398.5408a35.2256 35.2256 0 0 1 34.4064 34.4064V677.6832a34.4064 34.4064 0 0 1-34.4064 34.4064zM113.0496 209.1008V644.096h796.672v-434.9952z"  horiz-adv-x="1024" />

    
    <glyph glyph-name="huojiaweizhihuifu" unicode="&#59158;" d="M562.7904 454.4512zM458.3424 454.4512H273.2032V404.48H145.8176V582.656h733.5936v-131.072a345.7024 345.7024 0 0 0 65.536-45.056V821.8624c0 29.9008-13.9264 44.6464-31.5392 45.056a35.6352 35.6352 0 0 1-32.768-40.96v-177.7664h-134.3488v49.152h-185.5488v-49.152h-102.4v49.152H273.2032v-49.152H145.8176V825.5488a36.864 36.864 0 0 1-32.3584 40.96c-18.0224 0-32.3584-14.7456-32.768-45.056v-886.3744a33.5872 33.5872 0 0 1 32.768-31.9488 33.1776 33.1776 0 0 1 32.768 32.768v163.84h293.6832a327.68 327.68 0 0 0 2.8672 112.2304H273.2032v-46.6944H145.8176V338.944h349.3888a346.9312 346.9312 0 0 0 56.5248 65.536h-93.3888zM743.8336 297.1648A99.5328 99.5328 0 1 1 843.776 199.68a99.5328 99.5328 0 0 1-99.9424 97.4848z m0-144.9984A45.4656 45.4656 0 1 0 790.528 199.68a45.4656 45.4656 0 0 0-45.4656-47.104zM745.0624 412.2624A214.2208 214.2208 0 0 1 532.48 199.68c0-79.0528 66.7648-175.7184 198.656-292.0448l15.5648-14.336 15.1552 13.5168c130.6624 116.3264 197.0176 210.944 197.0176 292.864a214.2208 214.2208 0 0 1-213.8112 212.5824z m0-443.1872c-104.0384 95.0272-155.2384 171.2128-155.2384 226.0992a155.2384 155.2384 0 1 0 310.8864 0c0.4096-54.8864-52.0192-131.072-155.2384-226.0992z"  horiz-adv-x="1024" />

    
    <glyph glyph-name="liuchengpeizhi" unicode="&#59153;" d="M595.1488 838.2464h-178.176a97.0752 97.0752 0 1 1 0-193.7408h178.176a97.0752 97.0752 0 1 1 0 193.7408z m0-132.3008h-178.176a35.6352 35.6352 0 1 0 0 70.8608h178.176a35.6352 35.6352 0 1 0 0-70.8608zM595.1488 480.6656h-178.176a97.0752 97.0752 0 1 1 0-193.7408h178.176a97.0752 97.0752 0 1 1 0 193.7408z m0-132.3008h-178.176a35.6352 35.6352 0 1 0 0 70.8608h178.176a35.6352 35.6352 0 1 0 0-70.8608zM595.1488 123.4944h-178.176a97.0752 97.0752 0 1 1 0-193.7408h178.176a97.0752 97.0752 0 1 1 0 193.7408z m0-132.3008h-178.176a35.6352 35.6352 0 1 0 0 70.8608h178.176a35.6352 35.6352 0 1 0 0-70.8608zM983.04 556.4416a211.3536 211.3536 0 0 1-208.4864 213.8112 30.72 30.72 0 1 1 0-61.44 149.9136 149.9136 0 0 0 147.0464-152.3712 153.1904 153.1904 0 0 0-81.92-136.3968V492.1344l-107.7248-107.7248 109.7728-110.1824v79.0528A214.6304 214.6304 0 0 1 983.04 556.4416zM181.4528 64.512a153.1904 153.1904 0 0 0-81.92 136.3968A149.9136 149.9136 0 0 0 245.76 353.28a30.72 30.72 0 0 1 0 61.44A211.3536 211.3536 0 0 1 37.6832 199.68a214.6304 214.6304 0 0 1 143.36-202.752v-79.0528l110.1824 110.1824-108.9536 108.544z"  horiz-adv-x="1024" />

    
    <glyph glyph-name="renwuguanli" unicode="&#59154;" d="M713.9328 281.6l-66.3552-66.3552V621.568a32.3584 32.3584 0 0 1-64.3072 0v-484.9664a32.3584 32.3584 0 0 1 54.8864-22.9376l122.88 122.88a32.3584 32.3584 0 0 1-47.104 45.056zM420.6592 650.24a32.3584 32.3584 0 0 1-35.2256-6.9632l-122.88-122.88a32.3584 32.3584 0 1 1 45.4656-45.4656L376.0128 543.744v-407.1424a32.3584 32.3584 0 0 1 64.3072 0V621.568a32.3584 32.3584 0 0 1-19.6608 28.672zM737.28 843.1616H286.72a240.0256 240.0256 0 0 1-238.7968-239.616v-450.56A240.0256 240.0256 0 0 1 286.72-84.992h450.56a240.0256 240.0256 0 0 1 239.616 239.616v450.56A240.0256 240.0256 0 0 1 737.28 843.1616z m175.3088-688.128A175.3088 175.3088 0 0 0 737.28-20.2752H286.72a175.3088 175.3088 0 0 0-174.08 174.8992v450.56A175.3088 175.3088 0 0 0 286.72 778.4448h450.56a175.3088 175.3088 0 0 0 175.3088-175.3088z"  horiz-adv-x="1024" />

    
    <glyph glyph-name="huojiazhuangtaihuifu1" unicode="&#59159;" d="M499.3024 338.944A346.9312 346.9312 0 0 0 552.96 404.48h-94.6176v49.9712H273.2032V404.48H145.8176V582.656h733.5936v-122.88a345.7024 345.7024 0 0 0 65.536-40.96V821.8624c0 29.9008-13.9264 44.6464-31.5392 45.056a35.6352 35.6352 0 0 1-32.768-40.96v-177.7664h-134.3488v49.152h-185.5488v-49.152h-102.4v49.152H273.2032v-49.152H145.8176V825.5488a36.864 36.864 0 0 1-32.3584 40.96c-18.0224 0-32.3584-14.7456-32.768-45.056v-886.3744a33.5872 33.5872 0 0 1 32.768-31.9488 33.1776 33.1776 0 0 1 32.768 32.768v163.84h301.4656a321.9456 321.9456 0 0 0 0 112.2304H273.2032v-46.6944H145.8176V338.944zM955.1872 252.5184a30.72 30.72 0 1 1-52.0192-33.1776 168.3456 168.3456 0 1 0-142.9504 77.4144v-78.6432l110.1824 110.1824-108.544 107.7248v-77.824a228.5568 228.5568 0 1 1 194.1504-105.6768z"  horiz-adv-x="1024" />

    
    <glyph glyph-name="xiansuqu" unicode="&#59160;" d="M520.4992 633.088a287.6416 287.6416 0 0 1-203.3664-491.008 24.32 24.32 0 0 1 34.4064 34.4064 239.0016 239.0016 0 1 0 339.6608 1.6896 24.32 24.32 0 1 1 34.7136-34.048 287.6416 287.6416 0 0 1-205.4144 488.96zM566.3744 288.9728l-148.48 134.912a3.0208 3.0208 0 0 1-4.5056-3.584l110.6432-164.608a28.6208 28.6208 0 0 1 37.7856-9.8816 27.8016 27.8016 0 0 1 9.0112 38.656c-1.792 1.792-2.5088 3.584-4.4544 4.5056z"  horiz-adv-x="1024" />

    
    <glyph glyph-name="bizhangqu" unicode="&#59156;" d="M659.6096 196.352l-124.16 453.4272a24.32 24.32 0 0 1-23.4496 17.92 24.32 24.32 0 0 1-23.4496-17.8688L363.52 196.352H308.2752a24.32 24.32 0 0 1-24.32-24.32 24.32 24.32 0 0 1 24.32-24.32h406.3232a24.32 24.32 0 0 1 24.32 24.32 24.32 24.32 0 0 1-24.32 24.32zM512 551.68l34.1504-124.7744H477.44z m-47.9232-173.4144h95.3856l18.2272-66.56H445.44z m144.8448-181.9136H413.7472l18.432 66.56h158.72l18.2272-66.56z"  horiz-adv-x="1024" />

    
    <glyph glyph-name="changdijiankong" unicode="&#59161;" d="M345.6 89.6C102.4 198.4 57.6 441.6 102.4 595.2 160 774.4 320 889.6 512 883.2c185.6-6.4 339.2-134.4 384-320 38.4-179.2-38.4-384-256-473.6 19.2-44.8 32-83.2 51.2-128 0-6.4 12.8-12.8 19.2-12.8h51.2c25.6 0 38.4-12.8 38.4-32 0-25.6-19.2-32-38.4-32h-512c-25.6 0-44.8 6.4-44.8 32s19.2 38.4 44.8 32c32-6.4 51.2 12.8 57.6 38.4 6.4 38.4 19.2 70.4 38.4 102.4z m147.2 38.4c192 0 345.6 153.6 345.6 339.2 0 192-153.6 345.6-345.6 345.6-192 0-345.6-153.6-345.6-345.6 0-179.2 153.6-339.2 345.6-339.2z m-134.4-179.2h262.4c-12.8 38.4-25.6 76.8-44.8 108.8 0 6.4-12.8 12.8-19.2 12.8H403.2l-44.8-121.6zM704 409.6c0-115.2-96-211.2-211.2-211.2-115.2 0-217.6 96-211.2 211.2 0 115.2 96 211.2 211.2 211.2 115.2 0 211.2-96 211.2-211.2z m-358.4 0c0-83.2 64-147.2 147.2-147.2 83.2 0 147.2 64 147.2 147.2 0 83.2-64 147.2-147.2 147.2-83.2 0-147.2-64-147.2-147.2z m153.6 243.2c-32 0-51.2 19.2-51.2 51.2 0 25.6 19.2 44.8 44.8 44.8 25.6 0 51.2-19.2 51.2-44.8 6.4-32-19.2-51.2-44.8-51.2z"  horiz-adv-x="1024" />

    
    <glyph glyph-name="-shanchu" unicode="&#59162;" d="M548.181333 384l123.904 123.904a25.6 25.6 0 0 1-36.181333 36.181333L512 420.181333l-123.904 123.904a25.6 25.6 0 0 1-36.181333-36.181333L475.818667 384l-124.245334-123.904a25.6 25.6 0 1 1 36.181334-36.181333L512 347.818667l123.904-123.904a25.6 25.6 0 0 1 36.181333 36.181333z"  horiz-adv-x="1024" />

    
    <glyph glyph-name="-xiangxia" unicode="&#59163;" d="M512 260.437333l-186.709333 186.709334a25.6 25.6 0 0 0 36.181333 36.181333L512 332.8l150.528 150.528a25.6 25.6 0 1 0 36.181333-36.181333z"  horiz-adv-x="1024" />

    
    <glyph glyph-name="-huifu" unicode="&#59164;" d="M731.818667 439.637333A204.8 204.8 0 0 1 375.466667 513.024v34.133333a25.6 25.6 0 0 1-51.2 0v-119.125333H443.733333a25.6 25.6 0 0 1 0 51.2h-29.696a152.917333 152.917333 0 0 0 195.925334 39.253333 153.941333 153.941333 0 1 0-220.501334-185.685333 25.6 25.6 0 1 1-48.128-17.066667 204.8 204.8 0 0 1 390.826667 124.245334z"  horiz-adv-x="1024" />

    
    <glyph glyph-name="-zanting" unicode="&#59165;" d="M416.768 198.997333a25.6 25.6 0 0 0-25.6 25.6v318.464a25.6 25.6 0 1 0 51.2 0v-318.464a25.6 25.6 0 0 0-25.6-25.6zM607.232 198.997333a25.6 25.6 0 0 0-25.6 25.6v318.464a25.6 25.6 0 1 0 51.2 0v-318.464a25.6 25.6 0 0 0-25.6-25.6z"  horiz-adv-x="1024" />

    
    <glyph glyph-name="-xiangshang" unicode="&#59166;" d="M680.618667 271.018667a25.6 25.6 0 0 0-18.090667 7.509333L512 429.056l-150.528-150.528A25.6 25.6 0 1 0 325.290667 315.733333L512 501.418667 698.709333 315.733333a25.6 25.6 0 0 0-18.090666-43.690666z"  horiz-adv-x="1024" />

    
    <glyph glyph-name="-zhiding" unicode="&#59167;" d="M349.184 563.2h325.290667a25.6 25.6 0 0 1 0 51.2h-325.290667a25.6 25.6 0 0 1 0-51.2zM512 494.592l-180.906667-180.906667a25.6 25.6 0 1 1 36.181334-36.181333l118.784 118.784v-264.874667a25.6 25.6 0 0 1 51.2 0v265.216l118.784-118.784a25.6 25.6 0 1 1 36.181333 36.181334z"  horiz-adv-x="1024" />

    
    <glyph glyph-name="gongnengqu" unicode="&#59168;" d="M418.56 413.2352H306.5856a64.1024 64.1024 0 0 0-64 64V589.2608a64.1024 64.1024 0 0 0 64 64h111.9744a64.1024 64.1024 0 0 0 64-64v-112.0256a64.1024 64.1024 0 0 0-64-64zM306.5856 604.6208a15.36 15.36 0 0 1-15.36-15.36v-112.0256a15.36 15.36 0 0 1 15.36-15.36h111.9744a15.36 15.36 0 0 1 15.36 15.36V589.2608a15.36 15.36 0 0 1-15.36 15.36zM717.4144 413.2352h-111.9744a64.1024 64.1024 0 0 0-64 64V589.2608a64.1024 64.1024 0 0 0 64 64h111.9744a64.1024 64.1024 0 0 0 64-64v-112.0256a64.1024 64.1024 0 0 0-64-64z m-111.9744 191.3856a15.36 15.36 0 0 1-15.36-15.36v-112.0256a15.36 15.36 0 0 1 15.36-15.36h111.9744a15.36 15.36 0 0 1 15.36 15.36V589.2608a15.36 15.36 0 0 1-15.36 15.36zM418.56 114.7392H306.5856a64.1024 64.1024 0 0 0-64 64v112.0256a64.1024 64.1024 0 0 0 64 64h111.9744a64.1024 64.1024 0 0 0 64-64v-111.9744a64.1024 64.1024 0 0 0-64-64.0512z m-111.9744 191.3856a15.36 15.36 0 0 1-15.36-15.36v-111.9744a15.36 15.36 0 0 1 15.36-15.36h111.9744a15.36 15.36 0 0 1 15.36 15.36v111.9744a15.36 15.36 0 0 1-15.36 15.36zM717.4144 114.7392h-111.9744a64.1024 64.1024 0 0 0-64 64v112.0256a64.1024 64.1024 0 0 0 64 64h111.9744a64.1024 64.1024 0 0 0 64-64v-111.9744a64.1024 64.1024 0 0 0-64-64.0512z m-111.9744 191.3856a15.36 15.36 0 0 1-15.36-15.36v-111.9744a15.36 15.36 0 0 1 15.36-15.36h111.9744a15.36 15.36 0 0 1 15.36 15.36v111.9744a15.36 15.36 0 0 1-15.36 15.36z"  horiz-adv-x="1024" />

    
    <glyph glyph-name="arrow-right2" unicode="&#58899;" d="M420.60799999 636.826a30.72 30.72 0 0 0 21.70900001-9.012l224.051-224a30.72 30.72 0 0 0 0-43.417l-224-224a30.72 30.72 0 0 0-43.418 43.469l202.24 202.24-202.29 202.29a30.72 30.72 0 0 0 21.70799999 52.43z"  horiz-adv-x="1024" />

    
    <glyph glyph-name="wulianniu" unicode="&#59169;" d="M860.16 853.76H163.84A104.32 104.32 0 0 1 58.88 749.44v-278.4a104.32 104.32 0 0 1 104.96-104.96h35.84a34.56 34.56 0 1 1 0 69.76h-35.84A34.56 34.56 0 0 0 128 471.04V749.44a34.56 34.56 0 0 0 34.56 34.56h697.6a34.56 34.56 0 0 0 34.56-34.56v-278.4a34.56 34.56 0 0 0-34.56-34.56H627.2a34.56 34.56 0 0 1 0-69.76h232.96a104.32 104.32 0 0 1 104.32 104.32V749.44A104.32 104.32 0 0 1 860.16 853.76zM775.68 262.4H522.88V471.04a104.32 104.32 0 0 1-209.28 0v-228.48l-7.04 7.04a104.32 104.32 0 0 1-148.48-147.2L320-74.88a34.56 34.56 0 0 1 25.6-10.88h426.88a100.48 100.48 0 0 1 96 104.32v139.52a100.48 100.48 0 0 1-92.8 104.32z m26.24-243.84c0-19.2-12.16-34.56-26.24-34.56H363.52l-155.52 167.04a34.56 34.56 0 0 0 48 49.28l64-64a34.56 34.56 0 0 1 25.6-9.6h3.84a34.56 34.56 0 0 1 34.56 35.84V471.04a34.56 34.56 0 0 0 69.76 0v-241.92a34.56 34.56 0 0 1 34.56-34.56h287.36c14.08 0 26.24-16 26.24-34.56z"  horiz-adv-x="1024" />

    
    <glyph glyph-name="teshuqu" unicode="&#59170;" d="M384.54072038 125.50112392999995a20.407806 20.407806 0 0 0-18.61764759 12.17307727L268.89648636 348.19683158a20.76583769 20.76583769 0 0 0 2.86425348 21.83993273L490.51809894 634.6221790100001a20.407806 20.407806 0 0 0 26.85237633 4.6544119L747.22681659 491.40950529a20.407806 20.407806 0 0 0 9.30882378-19.33371095l-24.70418621-261.36312954a20.76583769 20.76583769 0 0 0-16.46945748-18.2596159l-326.52489608-66.59389327z m-71.60633685 229.49830965L396.35576598 169.18098941999995 691.01584214 230.76243911999995l22.19796443 233.79468985L512 594.88066205z"  horiz-adv-x="1024" />

    
    <glyph glyph-name="quxian" unicode="&#59171;" d="M773.13935973 551.82735201a67.13094081 67.13094081 0 1 1-88.61284186-63.77439376 422.25361768 422.25361768 0 0 0 0-50.3482056c-6.71309407-59.0752279-23.49582928-80.22147426-38.26463625-87.27022304-24.5027934-12.75487875-67.13094081 5.03482057-122.17831228 51.69082441a297.72572248 297.72572248 0 0 1-91.6337342 57.39695439 90.96242479 90.96242479 0 0 1-72.50141607-2.68523763c-33.56547039-17.78969932-54.04040736-60.08219202-60.41784672-125.53485931a492.40545081 492.40545081 0 0 1-2.01392823-52.02647913 67.13094081 67.13094081 0 1 1 42.29249271 0 452.46254104 452.46254104 0 0 0 0 47.99862268C344.17264799 362.18244424 354.24228911 406.48886517 377.73811838 419.57939863s67.13094081-4.36351115 119.15741993-49.6768962a309.80929182 309.80929182 0 0 1 95.66159066-59.41088262 90.96242479 90.96242479 0 0 1 73.50838018 2.68523764c33.56547039 17.45404461 52.36213383 58.4039185 58.06826379 122.17831226a490.72717729 490.72717729 0 0 1 0 53.70475266A67.13094081 67.13094081 0 0 1 773.13935973 551.82735201zM355.58490792 216.17264798999997a37.25767214 37.25767214 0 1 0-37.25767215 37.25767213A37.25767214 37.25767214 0 0 0 355.58490792 216.17264798999997zM742.93043637 551.82735201a37.25767214 37.25767214 0 1 0-37.25767214 37.25767216A37.25767214 37.25767214 0 0 0 742.93043637 551.82735201z"  horiz-adv-x="1024" />

    


  </font>
</defs>
</svg>
